<?xml version="1.0" standalone="no"?>
<!DOCTYPE svg PUBLIC "-//W3C//DTD SVG 20010904//EN"
 "http://www.w3.org/TR/2001/REC-SVG-20010904/DTD/svg10.dtd">
<svg version="1.0" xmlns="http://www.w3.org/2000/svg"
 width="32.000000pt" height="32.000000pt" viewBox="0 0 32.000000 32.000000"
 preserveAspectRatio="xMidYMid meet">

<g transform="translate(0.000000,32.000000) scale(0.100000,-0.100000)"
fill="#000000" stroke="none">
<path d="M20 300 c-18 -18 -20 -33 -20 -140 0 -164 -4 -160 180 -160 l140 0 0
140 c0 184 4 180 -160 180 -107 0 -122 -2 -140 -20z m265 -70 c4 -6 -5 -10
-19 -10 -25 0 -26 -2 -26 -65 0 -37 -4 -65 -10 -65 -6 0 -10 28 -10 65 0 63
-1 65 -26 65 -14 0 -23 4 -19 10 3 6 28 10 55 10 27 0 52 -4 55 -10z m-125
-15 c17 -21 4 -32 -20 -17 -29 18 -58 15 -70 -9 -23 -42 8 -87 50 -74 27 8 34
35 10 35 -11 0 -20 5 -20 10 0 6 16 10 36 10 34 0 36 -1 30 -27 -9 -35 -32
-53 -67 -53 -43 0 -57 9 -69 45 -11 35 -2 70 24 87 20 14 83 9 96 -7z"/>
</g>
</svg>
