<?xml version="1.0" encoding="UTF-8" standalone="no"?>
<!DOCTYPE svg PUBLIC "-//W3C//DTD SVG 1.1//EN" "http://www.w3.org/Graphics/SVG/1.1/DTD/svg11.dtd">
<svg xmlns="http://www.w3.org/2000/svg" version="1.1" viewBox="0 0 701 701">
<g stroke-width="2.00" fill="none" stroke-linecap="butt">
<path stroke="#808080" vector-effect="non-scaling-stroke" d="
  M 161.31 0.00
  Q 89.32 2.92 42.35 54.50
  Q 35.50 62.02 29.86 70.10
  Q 1.72 110.42 0.00 160.69"
/>
<path stroke="#808080" vector-effect="non-scaling-stroke" d="
  M 539.81 0.00
  Q 592.35 1.66 633.78 31.94
  Q 641.76 37.77 649.11 44.75
  Q 697.64 90.86 701.00 159.81"
/>
<path stroke="#808080" vector-effect="non-scaling-stroke" d="
  M 160.44 701.00
  Q 109.41 699.17 68.79 670.22
  Q 60.76 664.49 53.31 657.57
  Q 3.27 611.08 0.00 540.69"
/>
<path stroke="#808080" vector-effect="non-scaling-stroke" d="
  M 346.98 358.89
  Q 346.43 369.34 344.44 379.75
  Q 342.45 390.13 339.12 398.99
  Q 326.73 431.98 297.29 451.09
  Q 288.87 456.56 279.58 460.31
  Q 256.10 469.79 229.00 469.25
  Q 194.91 468.57 167.35 451.84
  Q 147.00 439.50 134.31 420.69
  Q 117.18 395.29 113.66 363.76
  Q 111.44 343.96 114.19 323.44
  Q 116.76 304.22 124.40 287.03
  Q 128.51 277.80 134.14 269.60
  Q 154.78 239.53 189.42 227.63
  Q 198.46 224.52 208.78 222.68
  Q 236.51 217.74 262.50 223.75
  Q 306.47 233.92 329.15 274.33
  Q 336.33 287.13 340.70 301.66
  A 1.11 1.10 81.4 0 0 341.75 302.44
  L 371.18 302.44
  A 0.41 0.40 -6.2 0 0 371.58 301.95
  Q 361.92 260.74 332.11 232.01
  Q 324.89 225.05 316.63 219.40
  Q 283.44 196.69 241.50 194.25
  Q 194.66 191.53 155.56 213.31
  Q 123.00 231.46 103.43 264.09
  Q 98.26 272.71 94.43 281.92
  Q 82.19 311.34 82.00 345.75
  Q 81.84 374.48 91.06 399.94
  Q 110.62 453.92 161.02 479.66
  Q 170.19 484.34 179.40 487.50
  Q 199.68 494.46 222.50 495.75
  Q 249.73 497.30 273.50 490.75
  Q 330.84 474.96 358.06 423.18
  Q 362.68 414.38 366.00 404.84
  Q 375.61 377.11 375.50 346.25
  Q 375.47 338.34 374.30 333.05
  A 0.61 0.61 83.1 0 0 373.69 332.57
  Q 365.54 332.78 357.39 332.68
  Q 342.12 332.49 341.11 332.49
  Q 272.19 332.38 203.01 332.69
  A 0.52 0.51 90.0 0 0 202.50 333.21
  L 202.43 357.48
  A 0.52 0.52 0.0 0 0 202.95 358.00
  L 346.14 358.00
  A 0.84 0.84 -88.4 0 1 346.98 358.89"
/>
<path stroke="#70803f" vector-effect="non-scaling-stroke" d="
  M 491.94 240.56
  L 492.00 491.19
  A 0.81 0.81 0.0 0 0 492.81 492.00
  L 539.19 492.00
  A 0.56 0.56 90.0 0 0 539.75 491.44
  L 539.75 240.56
  A 0.56 0.56 89.8 0 1 540.31 240.00
  L 626.21 240.00
  A 0.78 0.78 -89.9 0 0 626.99 239.22
  L 626.82 198.45
  A 0.51 0.51 0.0 0 0 626.31 197.94
  L 405.94 197.93
  A 0.51 0.51 0.0 0 0 405.43 198.44
  L 405.26 239.14
  A 0.80 0.80 0.0 0 0 406.06 239.94
  L 491.43 240.06
  A 0.51 0.50 0.0 0 1 491.94 240.56"
/>
</g>
<path fill="#ffffff" d="
  M 0.00 0.00
  L 161.31 0.00
  Q 89.32 2.92 42.35 54.50
  Q 35.50 62.02 29.86 70.10
  Q 1.72 110.42 0.00 160.69
  L 0.00 0.00
  Z"
/>
<path fill="#000000" d="
  M 161.31 0.00
  L 539.81 0.00
  Q 592.35 1.66 633.78 31.94
  Q 641.76 37.77 649.11 44.75
  Q 697.64 90.86 701.00 159.81
  L 701.00 701.00
  L 160.44 701.00
  Q 109.41 699.17 68.79 670.22
  Q 60.76 664.49 53.31 657.57
  Q 3.27 611.08 0.00 540.69
  L 0.00 160.69
  Q 1.72 110.42 29.86 70.10
  Q 35.50 62.02 42.35 54.50
  Q 89.32 2.92 161.31 0.00
  Z
  M 346.98 358.89
  Q 346.43 369.34 344.44 379.75
  Q 342.45 390.13 339.12 398.99
  Q 326.73 431.98 297.29 451.09
  Q 288.87 456.56 279.58 460.31
  Q 256.10 469.79 229.00 469.25
  Q 194.91 468.57 167.35 451.84
  Q 147.00 439.50 134.31 420.69
  Q 117.18 395.29 113.66 363.76
  Q 111.44 343.96 114.19 323.44
  Q 116.76 304.22 124.40 287.03
  Q 128.51 277.80 134.14 269.60
  Q 154.78 239.53 189.42 227.63
  Q 198.46 224.52 208.78 222.68
  Q 236.51 217.74 262.50 223.75
  Q 306.47 233.92 329.15 274.33
  Q 336.33 287.13 340.70 301.66
  A 1.11 1.10 81.4 0 0 341.75 302.44
  L 371.18 302.44
  A 0.41 0.40 -6.2 0 0 371.58 301.95
  Q 361.92 260.74 332.11 232.01
  Q 324.89 225.05 316.63 219.40
  Q 283.44 196.69 241.50 194.25
  Q 194.66 191.53 155.56 213.31
  Q 123.00 231.46 103.43 264.09
  Q 98.26 272.71 94.43 281.92
  Q 82.19 311.34 82.00 345.75
  Q 81.84 374.48 91.06 399.94
  Q 110.62 453.92 161.02 479.66
  Q 170.19 484.34 179.40 487.50
  Q 199.68 494.46 222.50 495.75
  Q 249.73 497.30 273.50 490.75
  Q 330.84 474.96 358.06 423.18
  Q 362.68 414.38 366.00 404.84
  Q 375.61 377.11 375.50 346.25
  Q 375.47 338.34 374.30 333.05
  A 0.61 0.61 83.1 0 0 373.69 332.57
  Q 365.54 332.78 357.39 332.68
  Q 342.12 332.49 341.11 332.49
  Q 272.19 332.38 203.01 332.69
  A 0.52 0.51 90.0 0 0 202.50 333.21
  L 202.43 357.48
  A 0.52 0.52 0.0 0 0 202.95 358.00
  L 346.14 358.00
  A 0.84 0.84 -88.4 0 1 346.98 358.89
  Z
  M 491.94 240.56
  L 492.00 491.19
  A 0.81 0.81 0.0 0 0 492.81 492.00
  L 539.19 492.00
  A 0.56 0.56 90.0 0 0 539.75 491.44
  L 539.75 240.56
  A 0.56 0.56 89.8 0 1 540.31 240.00
  L 626.21 240.00
  A 0.78 0.78 -89.9 0 0 626.99 239.22
  L 626.82 198.45
  A 0.51 0.51 0.0 0 0 626.31 197.94
  L 405.94 197.93
  A 0.51 0.51 0.0 0 0 405.43 198.44
  L 405.26 239.14
  A 0.80 0.80 0.0 0 0 406.06 239.94
  L 491.43 240.06
  A 0.51 0.50 0.0 0 1 491.94 240.56
  Z"
/>
<path fill="#ffffff" d="
  M 539.81 0.00
  L 701.00 0.00
  L 701.00 159.81
  Q 697.64 90.86 649.11 44.75
  Q 641.76 37.77 633.78 31.94
  Q 592.35 1.66 539.81 0.00
  Z"
/>
<path fill="#ffffff" d="
  M 346.98 358.89
  A 0.84 0.84 -88.4 0 0 346.14 358.00
  L 202.95 358.00
  A 0.52 0.52 0.0 0 1 202.43 357.48
  L 202.50 333.21
  A 0.52 0.51 90.0 0 1 203.01 332.69
  Q 272.19 332.38 341.11 332.49
  Q 342.12 332.49 357.39 332.68
  Q 365.54 332.78 373.69 332.57
  A 0.61 0.61 83.1 0 1 374.30 333.05
  Q 375.47 338.34 375.50 346.25
  Q 375.61 377.11 366.00 404.84
  Q 362.68 414.38 358.06 423.18
  Q 330.84 474.96 273.50 490.75
  Q 249.73 497.30 222.50 495.75
  Q 199.68 494.46 179.40 487.50
  Q 170.19 484.34 161.02 479.66
  Q 110.62 453.92 91.06 399.94
  Q 81.84 374.48 82.00 345.75
  Q 82.19 311.34 94.43 281.92
  Q 98.26 272.71 103.43 264.09
  Q 123.00 231.46 155.56 213.31
  Q 194.66 191.53 241.50 194.25
  Q 283.44 196.69 316.63 219.40
  Q 324.89 225.05 332.11 232.01
  Q 361.92 260.74 371.58 301.95
  A 0.41 0.40 -6.2 0 1 371.18 302.44
  L 341.75 302.44
  A 1.11 1.10 81.4 0 1 340.70 301.66
  Q 336.33 287.13 329.15 274.33
  Q 306.47 233.92 262.50 223.75
  Q 236.51 217.74 208.78 222.68
  Q 198.46 224.52 189.42 227.63
  Q 154.78 239.53 134.14 269.60
  Q 128.51 277.80 124.40 287.03
  Q 116.76 304.22 114.19 323.44
  Q 111.44 343.96 113.66 363.76
  Q 117.18 395.29 134.31 420.69
  Q 147.00 439.50 167.35 451.84
  Q 194.91 468.57 229.00 469.25
  Q 256.10 469.79 279.58 460.31
  Q 288.87 456.56 297.29 451.09
  Q 326.73 431.98 339.12 398.99
  Q 342.45 390.13 344.44 379.75
  Q 346.43 369.34 346.98 358.89
  Z"
/>
<path fill="#e0ff7e" d="
  M 491.43 240.06
  L 406.06 239.94
  A 0.80 0.80 0.0 0 1 405.26 239.14
  L 405.43 198.44
  A 0.51 0.51 0.0 0 1 405.94 197.93
  L 626.31 197.94
  A 0.51 0.51 0.0 0 1 626.82 198.45
  L 626.99 239.22
  A 0.78 0.78 -89.9 0 1 626.21 240.00
  L 540.31 240.00
  A 0.56 0.56 90.0 0 0 539.75 240.56
  L 539.75 491.44
  A 0.56 0.56 89.8 0 1 539.19 492.00
  L 492.81 492.00
  A 0.81 0.81 0.0 0 1 492.00 491.19
  L 491.94 240.56
  A 0.51 0.50 0.0 0 0 491.43 240.06
  Z"
/>
<path fill="#ffffff" d="
  M 0.00 540.69
  Q 3.27 611.08 53.31 657.57
  Q 60.76 664.49 68.79 670.22
  Q 109.41 699.17 160.44 701.00
  L 0.00 701.00
  L 0.00 540.69
  Z"
/>
</svg>
