<?xml version="1.0" standalone="no"?>
<!DOCTYPE svg PUBLIC "-//W3C//DTD SVG 20010904//EN"
 "http://www.w3.org/TR/2001/REC-SVG-20010904/DTD/svg10.dtd">
<svg version="1.0" xmlns="http://www.w3.org/2000/svg"
 width="32.000000pt" height="32.000000pt" viewBox="0 0 32.000000 32.000000"
 preserveAspectRatio="xMidYMid meet">

<g transform="translate(0.000000,32.000000) scale(0.100000,-0.100000)"
fill="#000000" stroke="none">
<path d="M20 300 c-18 -18 -20 -33 -20 -140 0 -164 -4 -160 180 -160 l140 0 0
140 c0 184 4 180 -160 180 -107 0 -122 -2 -140 -20z m265 -70 c4 -6 -5 -10
-19 -10 -25 0 -26 -2 -26 -65 0 -37 -4 -65 -10 -65 -6 0 -10 28 -10 65 0 58
-2 65 -20 65 -11 0 -20 5 -20 10 0 6 22 10 49 10 28 0 53 -4 56 -10z m-125
-15 c18 -22 5 -30 -26 -16 -32 14 -61 6 -69 -20 -13 -42 17 -76 55 -64 27 8
34 35 10 35 -11 0 -20 5 -20 10 0 6 16 10 35 10 27 0 35 -4 35 -18 0 -34 -29
-62 -65 -62 -49 0 -63 8 -75 45 -11 35 -2 70 24 87 20 14 83 9 96 -7z"/>
</g>
</svg>
