<?xml version="1.0" encoding="UTF-8" standalone="no"?>
<!DOCTYPE svg PUBLIC "-//W3C//DTD SVG 1.1//EN" "http://www.w3.org/Graphics/SVG/1.1/DTD/svg11.dtd">
<svg xmlns="http://www.w3.org/2000/svg" version="1.1" viewBox="0 0 701 701">
<g stroke-width="2.00" fill="none" stroke-linecap="butt">
<path stroke="#ffffff" stroke-opacity="0.992" vector-effect="non-scaling-stroke" d="
  M 701.00 700.56
  Q 430.50 700.45 160.00 700.48
  Q 159.57 700.48 159.25 700.79"
/>
<path stroke="#ffffff" stroke-opacity="0.992" vector-effect="non-scaling-stroke" d="
  M 0.47 541.50
  L 0.43 159.25"
/>
<path stroke="#ffffff" stroke-opacity="0.992" vector-effect="non-scaling-stroke" d="
  M 165.06 0.31
  Q 349.38 0.69 533.69 0.44
  Q 534.69 0.44 533.69 0.44
  L 165.06 0.31
  Q 164.06 0.31 165.06 0.31"
/>
<path stroke="#84888a" vector-effect="non-scaling-stroke" d="
  M 346.93 358.57
  Q 346.37 387.20 333.42 412.01
  Q 328.67 421.11 322.54 428.75
  Q 311.81 442.13 297.69 451.19
  Q 277.56 464.10 253.68 467.85
  Q 244.08 469.36 233.76 469.58
  Q 201.90 470.28 173.78 455.84
  Q 164.65 451.14 156.96 445.09
  Q 133.20 426.40 121.88 397.58
  Q 117.00 385.17 114.69 371.31
  Q 109.71 341.46 115.91 312.51
  Q 118.05 302.55 121.62 293.38
  Q 142.01 241.09 196.05 225.45
  Q 205.65 222.67 215.62 221.47
  Q 229.23 219.84 243.00 220.73
  Q 265.73 222.20 286.19 232.06
  Q 306.16 241.68 320.89 261.57
  Q 334.32 279.71 341.01 301.56
  A 0.97 0.97 81.5 0 0 341.94 302.25
  L 370.98 302.25
  A 0.40 0.40 -7.2 0 0 371.37 301.75
  Q 366.64 282.48 357.46 265.45
  Q 352.72 256.65 346.69 248.63
  Q 321.57 215.29 282.44 202.31
  Q 241.78 188.82 199.66 197.30
  Q 167.32 203.81 141.75 222.50
  Q 108.28 246.97 93.11 285.58
  Q 89.55 294.64 87.07 304.64
  Q 78.39 339.66 84.75 375.25
  Q 93.41 423.71 128.57 456.81
  Q 135.94 463.74 144.10 469.38
  Q 171.82 488.51 205.68 493.84
  Q 236.65 498.71 267.24 491.94
  Q 307.60 483.02 335.72 454.09
  Q 342.62 446.99 348.41 438.66
  Q 367.55 411.08 373.00 377.34
  Q 375.12 364.19 375.25 347.00
  Q 375.31 338.86 374.17 333.42
  A 0.63 0.60 -5.6 0 0 373.56 332.94
  L 203.31 332.81
  A 0.51 0.50 -90.0 0 0 202.81 333.32
  L 202.75 357.12
  A 0.88 0.88 0.0 0 0 203.63 358.00
  L 346.43 358.06
  A 0.50 0.50 -89.4 0 1 346.93 358.57"
/>
<path stroke="#84888a" vector-effect="non-scaling-stroke" d="
  M 540.04 239.81
  L 626.23 239.75
  A 0.52 0.52 90.0 0 0 626.75 239.23
  L 626.75 198.56
  A 0.56 0.56 90.0 0 0 626.19 198.00
  L 406.06 198.06
  A 0.52 0.50 -89.4 0 0 405.56 198.57
  L 405.32 239.18
  A 0.51 0.49 -90.0 0 0 405.81 239.69
  Q 438.41 239.80 471.00 239.99
  Q 481.25 240.04 491.24 239.76
  A 0.74 0.73 -0.8 0 1 492.00 240.49
  L 492.00 491.34
  A 0.66 0.66 0.0 0 0 492.66 492.00
  L 539.01 492.00
  A 0.55 0.55 90.0 0 0 539.56 491.45
  Q 539.45 394.09 539.67 297.25
  Q 539.74 268.78 539.56 240.30
  A 0.49 0.48 -90.0 0 1 540.04 239.81"
/>
</g>
<path fill="#ffffff" d="
  M 160.81 0.00
  L 540.31 0.00
  Q 603.54 2.26 648.31 43.94
  Q 697.86 90.06 701.00 159.81
  L 701.00 700.56
  Q 430.50 700.45 160.00 700.48
  Q 159.57 700.48 159.25 700.79
  Q 96.78 698.32 52.56 656.94
  Q 17.18 623.82 4.94 576.31
  Q 0.38 558.63 0.47 541.50
  L 0.43 159.25
  Q 0.91 127.94 13.69 98.94
  Q 24.41 74.60 41.70 55.10
  Q 48.21 47.76 55.92 41.03
  Q 100.29 2.27 160.81 0.00
  Z
  M 165.06 0.31
  Q 349.38 0.69 533.69 0.44
  Q 534.69 0.44 533.69 0.44
  L 165.06 0.31
  Q 164.06 0.31 165.06 0.31
  Z
  M 346.93 358.57
  Q 346.37 387.20 333.42 412.01
  Q 328.67 421.11 322.54 428.75
  Q 311.81 442.13 297.69 451.19
  Q 277.56 464.10 253.68 467.85
  Q 244.08 469.36 233.76 469.58
  Q 201.90 470.28 173.78 455.84
  Q 164.65 451.14 156.96 445.09
  Q 133.20 426.40 121.88 397.58
  Q 117.00 385.17 114.69 371.31
  Q 109.71 341.46 115.91 312.51
  Q 118.05 302.55 121.62 293.38
  Q 142.01 241.09 196.05 225.45
  Q 205.65 222.67 215.62 221.47
  Q 229.23 219.84 243.00 220.73
  Q 265.73 222.20 286.19 232.06
  Q 306.16 241.68 320.89 261.57
  Q 334.32 279.71 341.01 301.56
  A 0.97 0.97 81.5 0 0 341.94 302.25
  L 370.98 302.25
  A 0.40 0.40 -7.2 0 0 371.37 301.75
  Q 366.64 282.48 357.46 265.45
  Q 352.72 256.65 346.69 248.63
  Q 321.57 215.29 282.44 202.31
  Q 241.78 188.82 199.66 197.30
  Q 167.32 203.81 141.75 222.50
  Q 108.28 246.97 93.11 285.58
  Q 89.55 294.64 87.07 304.64
  Q 78.39 339.66 84.75 375.25
  Q 93.41 423.71 128.57 456.81
  Q 135.94 463.74 144.10 469.38
  Q 171.82 488.51 205.68 493.84
  Q 236.65 498.71 267.24 491.94
  Q 307.60 483.02 335.72 454.09
  Q 342.62 446.99 348.41 438.66
  Q 367.55 411.08 373.00 377.34
  Q 375.12 364.19 375.25 347.00
  Q 375.31 338.86 374.17 333.42
  A 0.63 0.60 -5.6 0 0 373.56 332.94
  L 203.31 332.81
  A 0.51 0.50 -90.0 0 0 202.81 333.32
  L 202.75 357.12
  A 0.88 0.88 0.0 0 0 203.63 358.00
  L 346.43 358.06
  A 0.50 0.50 -89.4 0 1 346.93 358.57
  Z
  M 540.04 239.81
  L 626.23 239.75
  A 0.52 0.52 90.0 0 0 626.75 239.23
  L 626.75 198.56
  A 0.56 0.56 90.0 0 0 626.19 198.00
  L 406.06 198.06
  A 0.52 0.50 -89.4 0 0 405.56 198.57
  L 405.32 239.18
  A 0.51 0.49 -90.0 0 0 405.81 239.69
  Q 438.41 239.80 471.00 239.99
  Q 481.25 240.04 491.24 239.76
  A 0.74 0.73 -0.8 0 1 492.00 240.49
  L 492.00 491.34
  A 0.66 0.66 0.0 0 0 492.66 492.00
  L 539.01 492.00
  A 0.55 0.55 90.0 0 0 539.56 491.45
  Q 539.45 394.09 539.67 297.25
  Q 539.74 268.78 539.56 240.30
  A 0.49 0.48 -90.0 0 1 540.04 239.81
  Z"
/>
<path fill="#fefefe" fill-opacity="0.984" d="
  M 165.06 0.31
  L 533.69 0.44
  Q 534.69 0.44 533.69 0.44
  Q 349.38 0.69 165.06 0.31
  Q 164.06 0.31 165.06 0.31
  Z"
/>
<path fill="#fefefe" fill-opacity="0.984" d="
  M 0.00 159.19
  L 0.43 159.25
  L 0.47 541.50
  L 0.00 541.44
  L 0.00 159.19
  Z"
/>
<path fill="#081115" d="
  M 346.43 358.06
  L 203.63 358.00
  A 0.88 0.88 0.0 0 1 202.75 357.12
  L 202.81 333.32
  A 0.51 0.50 -90.0 0 1 203.31 332.81
  L 373.56 332.94
  A 0.63 0.60 -5.6 0 1 374.17 333.42
  Q 375.31 338.86 375.25 347.00
  Q 375.12 364.19 373.00 377.34
  Q 367.55 411.08 348.41 438.66
  Q 342.62 446.99 335.72 454.09
  Q 307.60 483.02 267.24 491.94
  Q 236.65 498.71 205.68 493.84
  Q 171.82 488.51 144.10 469.38
  Q 135.94 463.74 128.57 456.81
  Q 93.41 423.71 84.75 375.25
  Q 78.39 339.66 87.07 304.64
  Q 89.55 294.64 93.11 285.58
  Q 108.28 246.97 141.75 222.50
  Q 167.32 203.81 199.66 197.30
  Q 241.78 188.82 282.44 202.31
  Q 321.57 215.29 346.69 248.63
  Q 352.72 256.65 357.46 265.45
  Q 366.64 282.48 371.37 301.75
  A 0.40 0.40 -7.2 0 1 370.98 302.25
  L 341.94 302.25
  A 0.97 0.97 81.5 0 1 341.01 301.56
  Q 334.32 279.71 320.89 261.57
  Q 306.16 241.68 286.19 232.06
  Q 265.73 222.20 243.00 220.73
  Q 229.23 219.84 215.62 221.47
  Q 205.65 222.67 196.05 225.45
  Q 142.01 241.09 121.62 293.38
  Q 118.05 302.55 115.91 312.51
  Q 109.71 341.46 114.69 371.31
  Q 117.00 385.17 121.88 397.58
  Q 133.20 426.40 156.96 445.09
  Q 164.65 451.14 173.78 455.84
  Q 201.90 470.28 233.76 469.58
  Q 244.08 469.36 253.68 467.85
  Q 277.56 464.10 297.69 451.19
  Q 311.81 442.13 322.54 428.75
  Q 328.67 421.11 333.42 412.01
  Q 346.37 387.20 346.93 358.57
  A 0.50 0.50 -89.4 0 0 346.43 358.06
  Z"
/>
<path fill="#081115" d="
  M 540.04 239.81
  A 0.49 0.48 -90.0 0 0 539.56 240.30
  Q 539.74 268.78 539.67 297.25
  Q 539.45 394.09 539.56 491.45
  A 0.55 0.55 89.9 0 1 539.01 492.00
  L 492.66 492.00
  A 0.66 0.66 0.0 0 1 492.00 491.34
  L 492.00 240.49
  A 0.74 0.73 -0.8 0 0 491.24 239.76
  Q 481.25 240.04 471.00 239.99
  Q 438.41 239.80 405.81 239.69
  A 0.51 0.49 90.0 0 1 405.32 239.18
  L 405.56 198.57
  A 0.52 0.50 -89.4 0 1 406.06 198.06
  L 626.19 198.00
  A 0.56 0.56 -89.8 0 1 626.75 198.56
  L 626.75 239.23
  A 0.52 0.52 -90.0 0 1 626.23 239.75
  L 540.04 239.81
  Z"
/>
<path fill="#fefefe" fill-opacity="0.984" d="
  M 701.00 700.56
  L 701.00 701.00
  L 159.19 701.00
  L 159.25 700.79
  Q 159.57 700.48 160.00 700.48
  Q 430.50 700.45 701.00 700.56
  Z"
/>
</svg>
