<?xml version="1.0" standalone="no"?>
<!DOCTYPE svg PUBLIC "-//W3C//DTD SVG 20010904//EN"
 "http://www.w3.org/TR/2001/REC-SVG-20010904/DTD/svg10.dtd">
<svg version="1.0" xmlns="http://www.w3.org/2000/svg"
 width="139.000000pt" height="32.000000pt" viewBox="0 0 139.000000 32.000000"
 preserveAspectRatio="xMidYMid meet">

<g transform="translate(0.000000,32.000000) scale(0.100000,-0.100000)"
fill="#000000" stroke="none">
<path d="M20 300 c-18 -18 -20 -33 -20 -138 0 -168 -6 -162 176 -162 l144 0 0
144 c0 182 6 176 -162 176 -105 0 -120 -2 -138 -20z m265 -70 c4 -6 -5 -10
-19 -10 -25 0 -26 -2 -26 -71 0 -44 -4 -68 -10 -64 -5 3 -10 35 -10 71 0 57
-2 64 -20 64 -11 0 -20 5 -20 10 0 6 22 10 49 10 28 0 53 -4 56 -10z m-125
-15 c18 -22 5 -30 -26 -16 -48 21 -85 -10 -69 -59 8 -25 50 -37 70 -20 21 17
19 30 -5 30 -11 0 -20 5 -20 10 0 6 16 10 35 10 25 0 35 -4 35 -16 0 -27 -20
-55 -47 -65 -74 -28 -133 69 -77 126 20 20 88 19 104 0z"/>
<path d="M1153 160 c0 -36 2 -55 4 -42 5 27 19 28 33 2 6 -11 16 -20 22 -20 6
0 2 11 -11 23 -19 21 -20 25 -6 37 8 7 15 17 15 23 0 6 -7 1 -16 -11 -22 -32
-32 -27 -37 16 -2 20 -4 8 -4 -28z"/>
<path d="M773 203 c13 -3 17 -15 17 -54 0 -27 5 -49 10 -49 6 0 10 22 10 49 0
39 4 51 18 54 9 3 -3 5 -28 5 -25 0 -37 -2 -27 -5z"/>
<path d="M878 183 c-13 -3 -18 -15 -18 -44 0 -21 5 -39 10 -39 6 0 10 14 10
31 0 19 7 37 18 45 17 13 12 15 -20 7z"/>
<path d="M937 169 c-29 -40 -5 -66 60 -67 18 -1 21 5 20 36 -2 52 -52 72 -80
31z m47 5 c23 -9 20 -51 -4 -59 -11 -3 -24 -3 -30 0 -14 9 -12 52 3 58 6 3 13
6 14 6 1 1 8 -2 17 -5z"/>
<path d="M1052 178 c-16 -16 -15 -53 2 -68 18 -14 58 -10 64 8 3 11 0 11 -16
1 -17 -10 -23 -10 -36 0 -9 8 -16 19 -16 26 0 7 7 18 16 26 12 10 20 10 35 1
10 -7 19 -8 19 -3 0 20 -50 27 -68 9z"/>
<path d="M1246 174 c-9 -8 -16 -22 -16 -29 0 -32 59 -60 75 -36 3 6 -7 9 -21
8 -15 -1 -29 4 -31 11 -3 8 7 12 31 12 37 0 47 15 24 38 -17 17 -44 15 -62 -4z
m54 -9 c11 -13 8 -15 -19 -15 -30 0 -39 9 -24 23 11 11 30 8 43 -8z"/>
<path d="M1358 183 c-13 -3 -18 -15 -18 -44 0 -21 5 -39 10 -39 6 0 10 14 10
31 0 19 7 37 18 45 17 13 12 15 -20 7z"/>
</g>
</svg>
