<?xml version="1.0" encoding="UTF-8" standalone="no"?>
<!DOCTYPE svg PUBLIC "-//W3C//DTD SVG 1.1//EN" "http://www.w3.org/Graphics/SVG/1.1/DTD/svg11.dtd">
<svg xmlns="http://www.w3.org/2000/svg" version="1.1" viewBox="0 0 3155 663">
<g stroke-width="2.00" fill="none" stroke-linecap="butt">
<path stroke="#84888a" vector-effect="non-scaling-stroke" d="
  M 255.33 187.62
  Q 238.30 183.42 219.00 183.50
  Q 181.84 183.66 150.15 200.26
  Q 141.18 204.95 133.20 210.86
  Q 101.87 234.07 87.52 271.22
  Q 78.75 293.93 77.75 320.00
  Q 76.67 348.18 84.70 373.44
  Q 97.70 414.30 130.73 440.06
  Q 138.61 446.21 147.39 451.08
  Q 175.64 466.76 208.50 468.77
  Q 226.81 469.90 244.19 467.19
  Q 276.90 462.08 303.03 442.57
  Q 311.12 436.53 317.96 429.33
  Q 330.57 416.07 338.69 400.19
  Q 351.42 375.25 354.18 346.88
  Q 355.07 337.67 355.21 331.12
  Q 355.37 323.12 354.29 315.29
  A 0.62 0.61 -3.7 0 0 353.68 314.76
  L 192.05 314.56
  A 0.51 0.49 90.0 0 0 191.56 315.07
  L 191.50 337.99
  A 0.52 0.51 0.0 0 0 192.02 338.50
  Q 243.00 338.32 293.50 338.69
  Q 309.75 338.81 327.00 338.48
  A 0.96 0.96 -89.4 0 1 327.98 339.48
  Q 327.63 349.48 325.70 359.45
  Q 323.75 369.53 320.17 378.64
  Q 306.07 414.54 271.78 432.02
  Q 263.10 436.45 253.18 439.26
  Q 219.61 448.80 186.19 439.56
  Q 143.45 427.74 122.11 389.84
  Q 117.17 381.05 113.94 371.61
  Q 107.70 353.39 106.75 332.00
  Q 105.67 307.76 112.50 285.25
  Q 125.45 242.56 163.56 222.17
  Q 172.45 217.41 181.98 214.46
  Q 201.77 208.33 224.50 208.75
  Q 245.02 209.12 263.31 216.44
  Q 279.78 223.02 292.67 235.21
  Q 299.59 241.77 305.58 250.41
  Q 316.66 266.38 322.28 285.35
  A 1.05 1.01 -7.4 0 0 323.27 286.08
  L 350.82 286.17
  A 0.67 0.65 -7.1 0 0 351.47 285.36
  Q 344.09 256.44 327.24 234.08
  Q 321.23 226.09 313.89 219.21
  Q 289.07 195.95 255.33 187.62"
/>
<path stroke="#67811d" vector-effect="non-scaling-stroke" d="
  M 465.19 227.56
  L 465.44 464.57
  A 0.50 0.50 0.0 0 0 465.94 465.07
  L 509.93 465.19
  A 0.51 0.50 -0.0 0 0 510.44 464.69
  L 510.56 227.71
  A 0.71 0.71 89.5 0 1 511.27 227.00
  L 592.01 227.00
  A 0.99 0.99 0.0 0 0 593.00 226.01
  L 593.00 187.81
  A 0.62 0.62 0.0 0 0 592.38 187.19
  L 383.89 187.25
  A 0.64 0.64 0.0 0 0 383.25 187.89
  L 383.25 226.13
  A 0.88 0.87 -0.0 0 0 384.13 227.00
  L 464.70 227.06
  A 0.50 0.49 90.0 0 1 465.19 227.56"
/>
</g>
<path fill="#081115" d="
  M 152.06 0.00
  L 510.56 0.00
  Q 568.68 1.90 610.56 39.19
  Q 654.30 78.12 661.81 136.81
  Q 662.79 144.47 662.91 155.25
  Q 662.99 162.97 663.00 173.75
  Q 663.22 447.10 662.60 663.00
  L 150.69 663.00
  Q 108.06 661.17 72.63 638.99
  Q 64.13 633.67 56.44 627.28
  Q 38.08 612.03 25.31 592.44
  Q 1.95 556.58 0.00 512.94
  L 0.00 150.19
  Q 1.64 112.55 18.56 81.81
  Q 39.60 43.59 76.06 21.81
  Q 110.53 1.23 152.06 0.00
  Z
  M 255.33 187.62
  Q 238.30 183.42 219.00 183.50
  Q 181.84 183.66 150.15 200.26
  Q 141.18 204.95 133.20 210.86
  Q 101.87 234.07 87.52 271.22
  Q 78.75 293.93 77.75 320.00
  Q 76.67 348.18 84.70 373.44
  Q 97.70 414.30 130.73 440.06
  Q 138.61 446.21 147.39 451.08
  Q 175.64 466.76 208.50 468.77
  Q 226.81 469.90 244.19 467.19
  Q 276.90 462.08 303.03 442.57
  Q 311.12 436.53 317.96 429.33
  Q 330.57 416.07 338.69 400.19
  Q 351.42 375.25 354.18 346.88
  Q 355.07 337.67 355.21 331.12
  Q 355.37 323.12 354.29 315.29
  A 0.62 0.61 -3.7 0 0 353.68 314.76
  L 192.05 314.56
  A 0.51 0.49 90.0 0 0 191.56 315.07
  L 191.50 337.99
  A 0.52 0.51 0.0 0 0 192.02 338.50
  Q 243.00 338.32 293.50 338.69
  Q 309.75 338.81 327.00 338.48
  A 0.96 0.96 -89.4 0 1 327.98 339.48
  Q 327.63 349.48 325.70 359.45
  Q 323.75 369.53 320.17 378.64
  Q 306.07 414.54 271.78 432.02
  Q 263.10 436.45 253.18 439.26
  Q 219.61 448.80 186.19 439.56
  Q 143.45 427.74 122.11 389.84
  Q 117.17 381.05 113.94 371.61
  Q 107.70 353.39 106.75 332.00
  Q 105.67 307.76 112.50 285.25
  Q 125.45 242.56 163.56 222.17
  Q 172.45 217.41 181.98 214.46
  Q 201.77 208.33 224.50 208.75
  Q 245.02 209.12 263.31 216.44
  Q 279.78 223.02 292.67 235.21
  Q 299.59 241.77 305.58 250.41
  Q 316.66 266.38 322.28 285.35
  A 1.05 1.01 -7.4 0 0 323.27 286.08
  L 350.82 286.17
  A 0.67 0.65 -7.1 0 0 351.47 285.36
  Q 344.09 256.44 327.24 234.08
  Q 321.23 226.09 313.89 219.21
  Q 289.07 195.95 255.33 187.62
  Z
  M 465.19 227.56
  L 465.44 464.57
  A 0.50 0.50 0.0 0 0 465.94 465.07
  L 509.93 465.19
  A 0.51 0.50 -0.0 0 0 510.44 464.69
  L 510.56 227.71
  A 0.71 0.71 89.5 0 1 511.27 227.00
  L 592.01 227.00
  A 0.99 0.99 0.0 0 0 593.00 226.01
  L 593.00 187.81
  A 0.62 0.62 0.0 0 0 592.38 187.19
  L 383.89 187.25
  A 0.64 0.64 0.0 0 0 383.25 187.89
  L 383.25 226.13
  A 0.88 0.87 -0.0 0 0 384.13 227.00
  L 464.70 227.06
  A 0.50 0.49 90.0 0 1 465.19 227.56
  Z"
/>
<rect fill="#081115" x="2580.75" y="153.26" width="44.74" height="298.74" rx="0.26"/>
<path fill="#081115" d="
  M 830.31 225.31
  Q 815.77 238.31 806.76 257.25
  Q 799.75 271.96 796.88 287.84
  Q 795.18 297.23 794.62 307.72
  Q 793.27 333.16 801.14 357.30
  Q 804.34 367.14 808.95 375.67
  Q 827.21 409.48 863.10 423.44
  Q 872.30 427.02 882.31 428.94
  Q 906.72 433.63 931.19 428.69
  Q 954.98 423.88 974.02 409.36
  Q 981.96 403.30 988.49 395.61
  Q 1008.13 372.48 1012.54 341.51
  Q 1013.51 334.66 1013.77 327.08
  A 0.80 0.80 -89.0 0 0 1012.97 326.25
  L 879.71 326.25
  A 0.96 0.96 0.1 0 1 878.75 325.29
  L 878.75 303.77
  A 0.95 0.95 0.3 0 1 879.71 302.82
  Q 946.53 303.14 1013.75 302.81
  Q 1025.72 302.76 1038.50 302.95
  A 1.29 1.29 87.8 0 1 1039.76 304.12
  Q 1042.04 328.24 1036.75 352.00
  Q 1030.32 380.85 1014.39 403.37
  Q 1008.65 411.49 1001.45 418.57
  Q 973.45 446.11 933.76 453.32
  Q 900.17 459.43 867.19 450.80
  Q 844.40 444.84 825.14 431.83
  Q 816.96 426.30 809.54 419.36
  Q 778.14 390.01 769.19 347.06
  Q 762.34 314.22 769.21 281.53
  Q 771.28 271.70 774.76 262.34
  Q 794.90 208.16 847.78 185.04
  Q 856.93 181.04 866.62 178.42
  Q 905.64 167.87 944.50 178.00
  Q 976.37 186.31 1000.44 209.18
  Q 1007.73 216.10 1013.66 224.13
  Q 1029.82 245.98 1036.73 273.39
  A 0.70 0.69 83.1 0 1 1036.06 274.25
  L 1009.13 274.25
  A 1.25 1.24 81.5 0 1 1007.94 273.37
  Q 1003.88 260.09 997.37 248.35
  Q 992.40 239.36 986.05 231.92
  Q 960.06 201.48 918.00 198.25
  Q 895.70 196.54 874.79 201.91
  Q 849.12 208.51 830.31 225.31
  Z"
/>
<path fill="#081115" d="
  M 1814.07 216.07
  A 1.07 1.06 -0.0 0 0 1813.00 217.13
  L 1812.94 451.30
  A 0.71 0.70 -0.0 0 1 1812.23 452.00
  L 1769.17 452.00
  A 0.92 0.92 -0.4 0 1 1768.25 451.08
  L 1768.25 216.99
  A 0.94 0.93 -0.0 0 0 1767.31 216.06
  L 1688.13 216.06
  A 0.77 0.75 86.1 0 1 1687.38 215.39
  Q 1686.96 212.44 1687.09 209.96
  Q 1687.26 206.57 1687.26 206.53
  Q 1687.37 192.05 1687.06 177.70
  A 0.93 0.93 89.4 0 1 1687.99 176.75
  L 1893.69 176.81
  A 0.81 0.81 89.9 0 1 1894.50 177.62
  L 1894.50 215.01
  A 1.24 1.24 0.0 0 1 1893.26 216.25
  L 1814.07 216.07
  Z"
/>
<path fill="#ffffff" d="
  M 255.33 187.62
  Q 289.07 195.95 313.89 219.21
  Q 321.23 226.09 327.24 234.08
  Q 344.09 256.44 351.47 285.36
  A 0.67 0.65 -7.1 0 1 350.82 286.17
  L 323.27 286.08
  A 1.05 1.01 -7.4 0 1 322.28 285.35
  Q 316.66 266.38 305.58 250.41
  Q 299.59 241.77 292.67 235.21
  Q 279.78 223.02 263.31 216.44
  Q 245.02 209.12 224.50 208.75
  Q 201.77 208.33 181.98 214.46
  Q 172.45 217.41 163.56 222.17
  Q 125.45 242.56 112.50 285.25
  Q 105.67 307.76 106.75 332.00
  Q 107.70 353.39 113.94 371.61
  Q 117.17 381.05 122.11 389.84
  Q 143.45 427.74 186.19 439.56
  Q 219.61 448.80 253.18 439.26
  Q 263.10 436.45 271.78 432.02
  Q 306.07 414.54 320.17 378.64
  Q 323.75 369.53 325.70 359.45
  Q 327.63 349.48 327.98 339.48
  A 0.96 0.96 -89.4 0 0 327.00 338.48
  Q 309.75 338.81 293.50 338.69
  Q 243.00 338.32 192.02 338.50
  A 0.52 0.51 -0.0 0 1 191.50 337.99
  L 191.56 315.07
  A 0.51 0.49 -90.0 0 1 192.05 314.56
  L 353.68 314.76
  A 0.62 0.61 -3.7 0 1 354.29 315.29
  Q 355.37 323.12 355.21 331.12
  Q 355.07 337.67 354.18 346.88
  Q 351.42 375.25 338.69 400.19
  Q 330.57 416.07 317.96 429.33
  Q 311.12 436.53 303.03 442.57
  Q 276.90 462.08 244.19 467.19
  Q 226.81 469.90 208.50 468.77
  Q 175.64 466.76 147.39 451.08
  Q 138.61 446.21 130.73 440.06
  Q 97.70 414.30 84.70 373.44
  Q 76.67 348.18 77.75 320.00
  Q 78.75 293.93 87.52 271.22
  Q 101.87 234.07 133.20 210.86
  Q 141.18 204.95 150.15 200.26
  Q 181.84 183.66 219.00 183.50
  Q 238.30 183.42 255.33 187.62
  Z"
/>
<path fill="#c6f124" d="
  M 464.70 227.06
  L 384.13 227.00
  A 0.88 0.87 0.0 0 1 383.25 226.13
  L 383.25 187.89
  A 0.64 0.64 0.0 0 1 383.89 187.25
  L 592.38 187.19
  A 0.62 0.62 0.0 0 1 593.00 187.81
  L 593.00 226.01
  A 0.99 0.99 0.0 0 1 592.01 227.00
  L 511.27 227.00
  A 0.71 0.71 89.8 0 0 510.56 227.71
  L 510.44 464.69
  A 0.51 0.50 -0.0 0 1 509.93 465.19
  L 465.94 465.07
  A 0.50 0.50 0.0 0 1 465.44 464.57
  L 465.19 227.56
  A 0.50 0.49 90.0 0 0 464.70 227.06
  Z"
/>
<path fill="#081115" d="
  M 2504.56 254.94
  Q 2508.57 258.61 2509.66 259.84
  Q 2529.12 281.77 2533.38 311.38
  A 0.27 0.27 86.3 0 1 2533.11 311.69
  L 2487.00 311.75
  Q 2485.25 311.75 2484.87 310.04
  Q 2478.29 280.64 2452.45 271.93
  Q 2443.32 268.85 2432.76 269.13
  Q 2404.11 269.89 2387.99 292.78
  Q 2382.51 300.56 2379.22 310.65
  Q 2373.61 327.87 2374.25 347.75
  Q 2374.76 363.65 2379.33 377.17
  Q 2382.69 387.12 2388.47 394.83
  Q 2404.43 416.11 2431.76 416.51
  Q 2442.12 416.66 2451.41 413.49
  Q 2478.32 404.30 2485.29 374.42
  A 0.54 0.53 5.9 0 1 2485.82 374.00
  L 2532.71 374.00
  A 0.61 0.61 6.1 0 1 2533.31 374.74
  Q 2527.23 402.84 2508.78 423.64
  Q 2502.04 431.23 2493.96 437.00
  Q 2471.08 453.33 2441.75 455.50
  Q 2412.38 457.67 2386.72 445.98
  Q 2377.58 441.81 2369.58 435.77
  Q 2341.98 414.94 2332.50 380.75
  Q 2321.82 342.23 2333.32 304.52
  Q 2336.44 294.29 2340.68 285.96
  Q 2354.34 259.09 2381.18 243.78
  Q 2400.45 232.79 2423.50 230.50
  Q 2445.08 228.36 2465.02 233.43
  Q 2487.26 239.08 2504.56 254.94
  Z"
/>
<path fill="#081115" d="
  M 2826.60 355.31
  Q 2828.09 374.75 2838.18 390.62
  Q 2843.95 399.69 2851.36 405.51
  Q 2863.84 415.32 2880.75 417.25
  Q 2895.97 418.98 2909.70 414.50
  Q 2919.88 411.17 2927.14 405.00
  Q 2939.17 394.77 2942.77 378.17
  A 1.17 1.15 -83.8 0 1 2943.90 377.25
  L 2988.74 377.31
  A 0.97 0.97 -83.4 0 1 2989.68 378.50
  Q 2980.20 418.09 2948.03 439.31
  Q 2939.83 444.73 2930.24 448.36
  Q 2902.92 458.73 2873.18 454.88
  Q 2843.96 451.09 2821.40 433.44
  Q 2813.60 427.34 2807.07 419.55
  Q 2785.58 393.91 2781.50 359.00
  Q 2777.77 327.10 2788.28 298.32
  Q 2791.81 288.64 2796.81 280.27
  Q 2815.63 248.76 2851.06 236.31
  Q 2872.26 228.87 2895.76 229.77
  Q 2928.46 231.03 2953.72 249.96
  Q 2961.79 256.01 2968.21 263.67
  Q 2985.91 284.79 2990.81 313.19
  Q 2994.17 332.62 2991.64 351.02
  Q 2991.62 351.17 2991.59 352.98
  Q 2991.56 355.04 2989.28 354.86
  Q 2987.82 354.75 2987.71 354.75
  Q 2907.38 354.70 2827.06 354.81
  A 0.46 0.46 87.7 0 0 2826.60 355.31
  Z
  M 2919.80 276.50
  Q 2906.58 268.36 2889.75 268.00
  Q 2874.33 267.67 2861.45 273.79
  Q 2852.49 278.04 2845.42 285.53
  Q 2836.00 295.51 2831.45 308.98
  Q 2829.05 316.10 2827.68 323.90
  A 0.51 0.51 -84.8 0 0 2828.18 324.50
  L 2946.13 324.50
  A 0.66 0.66 88.4 0 0 2946.79 323.80
  Q 2945.77 304.04 2934.60 289.76
  Q 2928.34 281.76 2919.80 276.50
  Z"
/>
<path fill="#081115" d="
  M 1339.31 266.37
  Q 1339.32 267.98 1340.14 266.59
  Q 1351.34 247.80 1370.04 238.40
  Q 1378.53 234.14 1388.91 231.93
  Q 1406.92 228.11 1425.03 231.44
  Q 1435.14 233.31 1444.07 237.36
  Q 1472.35 250.18 1483.57 280.26
  Q 1484.27 282.15 1484.99 280.27
  Q 1501.57 237.05 1547.75 230.50
  Q 1556.71 229.23 1569.49 230.63
  Q 1603.48 234.36 1623.09 260.04
  Q 1628.96 267.73 1632.93 277.36
  Q 1640.69 296.17 1640.69 317.00
  Q 1640.70 384.28 1640.81 451.33
  A 0.67 0.67 -90.0 0 1 1640.14 452.00
  L 1614.07 451.94
  A 0.51 0.51 0.0 0 1 1613.56 451.43
  Q 1613.40 368.40 1613.50 336.75
  Q 1613.53 326.49 1613.46 321.00
  Q 1613.25 304.14 1607.15 288.87
  Q 1603.12 278.79 1596.93 271.82
  Q 1581.75 254.71 1556.50 253.50
  Q 1545.88 252.99 1536.40 255.01
  Q 1526.15 257.20 1517.93 262.39
  Q 1507.23 269.15 1501.06 280.06
  Q 1494.07 292.42 1491.97 306.50
  Q 1490.54 316.07 1490.53 325.75
  Q 1490.50 388.62 1490.50 451.12
  A 0.88 0.88 0.1 0 1 1489.62 452.00
  L 1463.82 452.00
  A 0.82 0.82 -89.6 0 1 1463.00 451.18
  Q 1463.00 390.87 1463.00 331.75
  Q 1463.00 318.06 1461.90 309.07
  Q 1460.91 300.89 1458.36 293.15
  Q 1455.65 284.95 1451.50 278.46
  Q 1438.05 257.45 1411.50 254.00
  Q 1403.34 252.94 1395.99 253.40
  Q 1359.89 255.68 1346.06 287.56
  Q 1339.25 303.28 1339.25 323.00
  Q 1339.25 386.88 1339.25 451.01
  A 0.99 0.99 0.0 0 1 1338.26 452.00
  L 1312.31 451.94
  A 0.51 0.50 90.0 0 1 1311.81 451.43
  L 1311.94 234.19
  A 0.52 0.52 -1.1 0 1 1312.44 233.67
  Q 1324.08 233.37 1335.73 233.49
  Q 1335.87 233.49 1337.25 233.39
  Q 1339.54 233.23 1339.35 235.54
  Q 1339.25 236.85 1339.25 236.97
  Q 1339.20 252.06 1339.31 266.37
  Z"
/>
<path fill="#081115" d="
  M 1965.31 263.98
  Q 1965.32 266.60 1966.49 264.26
  Q 1972.61 252.09 1982.69 242.96
  Q 1998.15 228.96 2019.25 229.92
  Q 2026.42 230.24 2032.45 234.07
  A 2.84 2.75 16.6 0 1 2033.76 236.40
  L 2033.99 281.66
  Q 2034.00 283.04 2032.80 282.33
  Q 2023.62 276.92 2013.21 276.41
  Q 2002.85 275.90 1993.52 279.27
  Q 1980.84 283.85 1973.75 296.25
  Q 1968.91 304.72 1966.98 315.75
  Q 1965.13 326.29 1965.16 337.00
  Q 1965.30 394.34 1965.19 451.30
  A 0.71 0.70 -0.0 0 1 1964.48 452.00
  L 1921.26 452.00
  A 0.70 0.69 -0.0 0 1 1920.56 451.31
  L 1920.56 234.69
  A 1.18 1.18 0.9 0 1 1921.78 233.51
  Q 1927.50 233.69 1933.50 233.57
  Q 1949.10 233.27 1964.69 233.79
  A 0.53 0.52 -88.9 0 1 1965.19 234.32
  L 1965.31 263.98
  Z"
/>
<path fill="#081115" d="
  M 2232.94 267.96
  L 2233.00 234.14
  A 0.58 0.57 -90.0 0 1 2233.57 233.56
  L 2276.40 233.50
  A 1.30 1.29 -90.0 0 1 2277.69 234.80
  L 2277.50 451.18
  A 0.82 0.82 0.1 0 1 2276.68 452.00
  L 2233.55 452.00
  A 0.56 0.55 -90.0 0 1 2233.00 451.44
  L 2232.94 417.26
  Q 2232.94 415.66 2232.07 417.01
  Q 2209.46 452.03 2167.98 455.31
  Q 2140.05 457.51 2115.31 446.44
  Q 2094.39 437.07 2080.00 418.25
  Q 2065.20 398.89 2060.07 373.84
  Q 2052.16 335.18 2063.75 298.50
  Q 2070.79 276.21 2087.56 258.56
  Q 2103.79 241.49 2128.58 234.38
  Q 2149.13 228.50 2170.10 230.41
  Q 2180.73 231.39 2189.66 234.30
  Q 2216.51 243.07 2232.17 268.18
  Q 2232.94 269.42 2232.94 267.96
  Z
  M 2125.94 402.06
  Q 2141.37 416.17 2162.75 417.26
  Q 2200.26 419.17 2219.60 390.79
  Q 2224.94 382.95 2228.34 372.89
  Q 2238.36 343.25 2228.30 312.44
  Q 2224.24 300.02 2217.19 291.31
  Q 2198.68 268.47 2169.99 268.20
  Q 2159.30 268.10 2150.16 270.44
  Q 2132.70 274.91 2120.64 289.38
  Q 2112.86 298.71 2109.25 309.25
  Q 2098.59 340.35 2107.70 371.43
  Q 2110.55 381.16 2114.55 387.98
  Q 2119.19 395.90 2125.94 402.06
  Z"
/>
<path fill="#081115" d="
  M 3087.13 264.98
  Q 3092.08 253.65 3101.69 244.44
  Q 3119.32 227.53 3143.23 230.40
  Q 3146.04 230.73 3148.17 231.51
  Q 3150.73 232.45 3152.74 233.80
  Q 3154.50 234.99 3154.50 237.11
  L 3154.50 282.66
  Q 3154.50 283.20 3154.06 282.89
  Q 3147.36 278.30 3139.43 277.09
  Q 3130.15 275.67 3120.95 277.48
  Q 3108.14 280.00 3099.79 289.01
  Q 3095.22 293.96 3092.01 301.36
  Q 3089.08 308.13 3087.79 315.51
  Q 3086.18 324.68 3086.16 334.00
  Q 3086.00 392.75 3086.00 451.15
  A 0.85 0.85 -90.0 0 1 3085.15 452.00
  L 3041.94 452.00
  A 0.69 0.69 -0.3 0 1 3041.25 451.31
  L 3041.25 234.61
  A 0.87 0.86 89.7 0 1 3042.10 233.74
  L 3085.02 233.51
  A 0.99 0.98 90.0 0 1 3086.00 234.50
  Q 3086.00 249.63 3086.00 264.50
  Q 3086.00 265.36 3086.44 265.48
  A 0.76 0.51 -69.6 0 0 3087.13 264.98
  Z"
/>
<path fill="#081115" d="
  M 1170.18 408.02
  Q 1170.66 409.12 1171.12 408.01
  L 1242.07 235.05
  A 2.50 2.49 11.0 0 1 1244.38 233.50
  L 1269.28 233.50
  A 0.91 0.91 -78.9 0 1 1270.12 234.75
  L 1145.19 540.04
  A 1.56 1.54 10.9 0 1 1143.75 541.00
  L 1117.77 541.00
  A 0.60 0.60 11.1 0 1 1117.21 540.17
  L 1156.08 445.06
  A 2.65 2.63 -46.1 0 0 1156.05 442.98
  L 1064.43 234.72
  A 0.87 0.87 78.0 0 1 1065.22 233.50
  L 1092.27 233.50
  A 1.87 1.85 78.1 0 1 1093.97 234.62
  L 1170.18 408.02
  Z"
/>
<path fill="#081115" d="
  M 2681.08 338.24
  Q 2681.95 339.58 2684.31 342.69
  Q 2725.51 396.74 2766.86 451.04
  Q 2767.59 452.00 2766.39 451.99
  L 2713.94 451.82
  A 1.04 1.00 70.9 0 1 2713.13 451.41
  L 2630.14 341.77
  A 1.87 1.86 -44.6 0 1 2630.16 339.50
  L 2712.22 234.75
  A 3.27 3.24 -70.8 0 1 2714.78 233.50
  Q 2732.75 233.50 2750.00 233.72
  Q 2756.75 233.80 2763.55 233.50
  Q 2765.49 233.41 2764.27 234.92
  L 2681.13 337.43
  A 0.68 0.67 -41.8 0 0 2681.08 338.24
  Z"
/>
</svg>
