<?xml version="1.0" encoding="UTF-8" standalone="no"?>
<!DOCTYPE svg PUBLIC "-//W3C//DTD SVG 1.1//EN" "http://www.w3.org/Graphics/SVG/1.1/DTD/svg11.dtd">
<svg xmlns="http://www.w3.org/2000/svg" version="1.1" viewBox="0 0 3155 663">
<g stroke-width="2.00" fill="none" stroke-linecap="butt">
<path stroke="#feffff" stroke-opacity="0.992" vector-effect="non-scaling-stroke" d="
  M 0.43 512.50
  L 0.46 151.00"
/>
<path stroke="#feffff" stroke-opacity="0.992" vector-effect="non-scaling-stroke" d="
  M 157.05 0.31
  L 505.70 0.44
  Q 506.68 0.44 505.70 0.44
  Q 331.37 0.06 157.05 0.31
  Q 156.07 0.31 157.05 0.31"
/>
<path stroke="#c3c9c6" vector-effect="non-scaling-stroke" d="
  M 243.25 185.21
  Q 238.05 184.11 232.75 184.29"
/>
<path stroke="#84888a" vector-effect="non-scaling-stroke" d="
  M 232.75 184.29
  L 229.00 183.96"
/>
<path stroke="#c3c9c6" vector-effect="non-scaling-stroke" d="
  M 229.00 183.96
  Q 227.19 183.24 225.25 183.54"
/>
<path stroke="#84888a" vector-effect="non-scaling-stroke" d="
  M 225.25 183.54
  Q 200.57 182.92 178.00 189.25
  Q 142.33 199.25 116.68 225.54
  Q 109.65 232.75 103.89 240.90
  Q 86.69 265.26 80.81 295.01
  Q 76.88 314.97 78.00 336.00
  Q 79.50 364.06 90.95 389.12
  Q 108.40 427.30 143.54 448.61
  Q 152.06 453.78 161.35 457.66
  Q 183.26 466.81 207.24 468.57
  Q 235.40 470.64 261.19 463.19
  Q 303.04 451.10 328.33 416.46
  Q 334.08 408.59 338.70 399.39
  Q 358.15 360.67 354.21 316.04
  A 1.35 1.34 87.4 0 0 352.87 314.81
  L 192.31 314.81
  A 0.51 0.51 0.0 0 0 191.80 315.32
  L 191.81 337.95
  A 0.56 0.55 0.0 0 0 192.37 338.50
  L 327.19 338.50
  A 0.83 0.82 1.0 0 1 328.02 339.35
  Q 327.71 351.39 325.27 362.25
  Q 315.29 406.64 277.73 428.95
  Q 269.08 434.09 259.64 437.36
  Q 236.55 445.37 210.00 443.75
  Q 183.73 442.15 161.56 429.69
  Q 137.94 416.41 123.90 393.44
  Q 118.94 385.34 115.19 375.46
  Q 104.48 347.22 106.69 316.94
  Q 107.44 306.60 109.26 297.12
  Q 113.04 277.49 122.56 261.31
  Q 146.43 220.73 193.94 211.19
  Q 222.82 205.38 250.07 212.05
  Q 260.26 214.55 268.91 218.65
  Q 286.07 226.80 298.19 240.56
  Q 314.71 259.33 322.54 285.08
  A 0.69 0.66 81.1 0 0 323.18 285.57
  L 350.35 285.74
  A 0.80 0.80 82.9 0 0 351.12 284.74
  Q 346.83 267.53 338.42 251.73
  Q 333.67 242.80 327.64 234.92
  Q 300.41 199.37 255.81 187.94
  Q 250.95 186.69 243.25 185.21"
/>
<path stroke="#485251" vector-effect="non-scaling-stroke" d="
  M 225.25 183.54
  Q 227.04 184.31 229.00 183.96"
/>
<path stroke="#485251" vector-effect="non-scaling-stroke" d="
  M 232.75 184.29
  Q 235.34 184.68 237.95 184.90
  Q 238.00 184.90 240.49 185.41
  Q 241.85 185.69 243.25 185.21"
/>
<path stroke="#c3c9c6" vector-effect="non-scaling-stroke" d="
  M 510.46 249.50
  L 510.32 239.18"
/>
<path stroke="#84888a" vector-effect="non-scaling-stroke" d="
  M 510.32 239.18
  L 510.51 227.61
  A 0.87 0.84 -89.7 0 1 511.35 226.75
  L 592.23 226.75
  A 0.52 0.52 90.0 0 0 592.75 226.23
  L 592.75 187.94
  A 0.69 0.69 0.1 0 0 592.06 187.25
  L 384.07 187.31
  A 0.51 0.50 -0.0 0 0 383.56 187.81
  L 383.50 226.25
  A 0.50 0.50 0.0 0 0 384.00 226.75
  L 464.69 226.75
  A 0.56 0.56 0.0 0 1 465.25 227.31
  L 465.25 464.69
  A 0.56 0.56 0.0 0 0 465.81 465.25
  L 509.73 465.25
  A 0.71 0.71 0.0 0 0 510.44 464.54
  L 510.46 249.50"
/>
<path stroke="#485251" vector-effect="non-scaling-stroke" d="
  M 510.32 239.18
  Q 509.60 244.41 510.46 249.50"
/>
<path stroke="#feffff" stroke-opacity="0.992" vector-effect="non-scaling-stroke" d="
  M 2625.25 154.54
  Q 2624.75 154.39 2624.75 155.00
  Q 2624.72 302.98 2624.80 450.96"
/>
<path stroke="#feffff" stroke-opacity="0.992" vector-effect="non-scaling-stroke" d="
  M 2581.21 451.96
  Q 2581.28 303.10 2581.29 154.25
  Q 2581.29 153.68 2580.79 153.50"
/>
<path stroke="#feffff" stroke-opacity="0.992" vector-effect="non-scaling-stroke" d="
  M 3041.29 451.50
  Q 3042.04 404.00 3041.90 356.50
  Q 3041.75 303.25 3041.80 250.00
  Q 3041.80 248.25 3041.29 249.75"
/>
</g>
<path fill="#ffffff" d="
  M 151.81 0.00
  L 511.06 0.00
  Q 570.64 2.19 612.81 41.19
  Q 655.26 80.43 662.02 138.78
  Q 662.80 145.50 662.91 154.25
  Q 663.00 160.68 663.00 169.75
  Q 663.05 416.38 662.94 663.00
  L 150.69 663.00
  Q 99.06 660.81 60.06 630.19
  Q 32.98 608.92 17.18 578.31
  Q 1.20 547.35 0.43 512.50
  L 0.46 151.00
  Q 0.16 143.88 1.25 136.00
  Q 8.34 84.93 42.86 48.49
  Q 49.73 41.23 57.52 34.91
  Q 98.12 1.99 151.81 0.00
  Z
  M 157.05 0.31
  L 505.70 0.44
  Q 506.68 0.44 505.70 0.44
  Q 331.37 0.06 157.05 0.31
  Q 156.07 0.31 157.05 0.31
  Z
  M 243.25 185.21
  Q 238.05 184.11 232.75 184.29
  L 229.00 183.96
  Q 227.19 183.24 225.25 183.54
  Q 200.57 182.92 178.00 189.25
  Q 142.33 199.25 116.68 225.54
  Q 109.65 232.75 103.89 240.90
  Q 86.69 265.26 80.81 295.01
  Q 76.88 314.97 78.00 336.00
  Q 79.50 364.06 90.95 389.12
  Q 108.40 427.30 143.54 448.61
  Q 152.06 453.78 161.35 457.66
  Q 183.26 466.81 207.24 468.57
  Q 235.40 470.64 261.19 463.19
  Q 303.04 451.10 328.33 416.46
  Q 334.08 408.59 338.70 399.39
  Q 358.15 360.67 354.21 316.04
  A 1.35 1.34 87.4 0 0 352.87 314.81
  L 192.31 314.81
  A 0.51 0.51 0.0 0 0 191.80 315.32
  L 191.81 337.95
  A 0.56 0.55 0.0 0 0 192.37 338.50
  L 327.19 338.50
  A 0.83 0.82 1.0 0 1 328.02 339.35
  Q 327.71 351.39 325.27 362.25
  Q 315.29 406.64 277.73 428.95
  Q 269.08 434.09 259.64 437.36
  Q 236.55 445.37 210.00 443.75
  Q 183.73 442.15 161.56 429.69
  Q 137.94 416.41 123.90 393.44
  Q 118.94 385.34 115.19 375.46
  Q 104.48 347.22 106.69 316.94
  Q 107.44 306.60 109.26 297.12
  Q 113.04 277.49 122.56 261.31
  Q 146.43 220.73 193.94 211.19
  Q 222.82 205.38 250.07 212.05
  Q 260.26 214.55 268.91 218.65
  Q 286.07 226.80 298.19 240.56
  Q 314.71 259.33 322.54 285.08
  A 0.69 0.66 81.1 0 0 323.18 285.57
  L 350.35 285.74
  A 0.80 0.80 82.9 0 0 351.12 284.74
  Q 346.83 267.53 338.42 251.73
  Q 333.67 242.80 327.64 234.92
  Q 300.41 199.37 255.81 187.94
  Q 250.95 186.69 243.25 185.21
  Z
  M 510.46 249.50
  L 510.32 239.18
  L 510.51 227.61
  A 0.87 0.84 -89.7 0 1 511.35 226.75
  L 592.23 226.75
  A 0.52 0.52 90.0 0 0 592.75 226.23
  L 592.75 187.94
  A 0.69 0.69 0.1 0 0 592.06 187.25
  L 384.07 187.31
  A 0.51 0.50 -0.0 0 0 383.56 187.81
  L 383.50 226.25
  A 0.50 0.50 0.0 0 0 384.00 226.75
  L 464.69 226.75
  A 0.56 0.56 0.0 0 1 465.25 227.31
  L 465.25 464.69
  A 0.56 0.56 0.0 0 0 465.81 465.25
  L 509.73 465.25
  A 0.71 0.71 0.0 0 0 510.44 464.54
  L 510.46 249.50
  Z"
/>
<path fill="#fdfeff" fill-opacity="0.980" d="
  M 157.05 0.31
  Q 331.37 0.06 505.70 0.44
  Q 506.68 0.44 505.70 0.44
  L 157.05 0.31
  Q 156.07 0.31 157.05 0.31
  Z"
/>
<path fill="#fdfeff" fill-opacity="0.980" d="
  M 0.00 150.94
  L 0.46 151.00
  L 0.43 512.50
  L 0.00 512.44
  L 0.00 150.94
  Z"
/>
<path fill="#ffffff" d="
  M 2625.25 154.54
  Q 2624.75 154.39 2624.75 155.00
  Q 2624.72 302.98 2624.80 450.96
  Q 2626.03 451.49 2625.33 451.87
  Q 2625.08 452.00 2624.65 452.00
  Q 2602.67 452.03 2581.21 451.96
  Q 2581.28 303.10 2581.29 154.25
  Q 2581.29 153.68 2580.79 153.50
  L 2624.69 153.30
  A 0.81 0.59 -5.8 0 1 2625.43 153.73
  Q 2625.56 154.14 2625.25 154.54
  Z"
/>
<path fill="#fdfeff" fill-opacity="0.980" d="
  M 2580.79 153.50
  Q 2581.29 153.68 2581.29 154.25
  Q 2581.28 303.10 2581.21 451.96
  Q 2580.63 452.00 2580.71 451.63
  Q 2580.75 451.43 2580.75 451.35
  Q 2580.72 302.43 2580.79 153.50
  Z"
/>
<path fill="#fdfeff" fill-opacity="0.980" d="
  M 2625.25 154.54
  Q 2625.25 285.22 2625.25 415.89
  Q 2625.25 415.94 2625.41 429.10
  Q 2625.55 440.03 2624.80 450.96
  Q 2624.72 302.98 2624.75 155.00
  Q 2624.75 154.39 2625.25 154.54
  Z"
/>
<path fill="#ffffff" d="
  M 804.69 414.56
  Q 783.41 392.72 773.79 363.74
  Q 763.21 331.90 766.69 298.44
  Q 769.90 267.52 784.15 241.88
  Q 788.98 233.18 795.20 225.24
  Q 819.68 194.01 857.69 181.19
  Q 897.54 167.74 938.49 176.64
  Q 948.60 178.84 957.66 182.26
  Q 993.69 195.85 1015.81 226.94
  Q 1030.26 247.23 1036.82 273.70
  A 0.39 0.39 82.3 0 1 1036.45 274.19
  L 1009.06 274.43
  A 0.71 0.68 -9.3 0 1 1008.40 273.98
  Q 1004.78 264.00 1002.69 259.06
  Q 994.16 238.91 978.94 224.31
  Q 962.33 208.38 939.50 202.00
  Q 910.88 194.00 879.68 200.64
  Q 842.30 208.60 819.31 237.06
  Q 804.72 255.13 798.70 280.05
  Q 791.00 311.88 797.25 343.25
  Q 800.16 357.86 806.85 371.63
  Q 811.31 380.82 817.20 388.71
  Q 839.59 418.69 877.24 427.81
  Q 889.19 430.70 901.49 431.21
  Q 931.48 432.44 957.67 419.49
  Q 966.93 414.90 974.59 408.90
  Q 995.29 392.69 1005.37 367.66
  Q 1013.15 348.35 1013.76 327.18
  A 0.91 0.90 0.9 0 0 1012.85 326.25
  L 879.32 326.19
  A 0.51 0.50 0.0 0 1 878.81 325.69
  L 878.69 303.46
  A 0.52 0.52 0.0 0 1 879.21 302.94
  L 1038.88 303.00
  A 0.87 0.87 -2.5 0 1 1039.75 303.79
  Q 1040.99 316.19 1040.08 328.56
  Q 1039.35 338.45 1037.53 348.40
  Q 1033.39 371.04 1022.44 390.69
  Q 1001.14 428.89 961.14 445.29
  Q 952.25 448.93 942.11 451.41
  Q 896.60 462.55 852.75 446.25
  Q 825.79 436.23 804.69 414.56
  Z"
/>
<path fill="#ffffff" d="
  M 1813.59 216.12
  Q 1813.00 216.63 1813.00 217.75
  Q 1813.00 334.75 1813.00 451.41
  A 0.59 0.59 -89.9 0 1 1812.41 452.00
  L 1769.12 452.00
  A 0.87 0.87 89.9 0 1 1768.25 451.13
  L 1768.25 217.01
  A 0.95 0.95 0.0 0 0 1767.30 216.06
  L 1687.77 216.06
  A 0.52 0.51 -0.0 0 1 1687.25 215.55
  L 1687.31 177.32
  A 0.51 0.50 -90.0 0 1 1687.81 176.81
  L 1893.84 176.75
  A 0.67 0.66 90.0 0 1 1894.50 177.42
  L 1894.50 215.57
  A 0.68 0.68 0.4 0 1 1893.81 216.25
  Q 1854.10 215.67 1814.44 216.25
  Q 1814.25 216.25 1814.08 216.17
  Q 1814.00 216.12 1813.92 216.08
  A 0.30 0.30 37.7 0 0 1813.59 216.12
  Z"
/>
<path fill="#081115" d="
  M 225.25 183.54
  Q 227.04 184.31 229.00 183.96
  L 232.75 184.29
  Q 235.34 184.68 237.95 184.90
  Q 238.00 184.90 240.49 185.41
  Q 241.85 185.69 243.25 185.21
  Q 250.95 186.69 255.81 187.94
  Q 300.41 199.37 327.64 234.92
  Q 333.67 242.80 338.42 251.73
  Q 346.83 267.53 351.12 284.74
  A 0.80 0.80 82.9 0 1 350.35 285.74
  L 323.18 285.57
  A 0.69 0.66 81.1 0 1 322.54 285.08
  Q 314.71 259.33 298.19 240.56
  Q 286.07 226.80 268.91 218.65
  Q 260.26 214.55 250.07 212.05
  Q 222.82 205.38 193.94 211.19
  Q 146.43 220.73 122.56 261.31
  Q 113.04 277.49 109.26 297.12
  Q 107.44 306.60 106.69 316.94
  Q 104.48 347.22 115.19 375.46
  Q 118.94 385.34 123.90 393.44
  Q 137.94 416.41 161.56 429.69
  Q 183.73 442.15 210.00 443.75
  Q 236.55 445.37 259.64 437.36
  Q 269.08 434.09 277.73 428.95
  Q 315.29 406.64 325.27 362.25
  Q 327.71 351.39 328.02 339.35
  A 0.83 0.82 1.0 0 0 327.19 338.50
  L 192.37 338.50
  A 0.56 0.55 0.0 0 1 191.81 337.95
  L 191.80 315.32
  A 0.51 0.51 0.0 0 1 192.31 314.81
  L 352.87 314.81
  A 1.35 1.34 87.4 0 1 354.21 316.04
  Q 358.15 360.67 338.70 399.39
  Q 334.08 408.59 328.33 416.46
  Q 303.04 451.10 261.19 463.19
  Q 235.40 470.64 207.24 468.57
  Q 183.26 466.81 161.35 457.66
  Q 152.06 453.78 143.54 448.61
  Q 108.40 427.30 90.95 389.12
  Q 79.50 364.06 78.00 336.00
  Q 76.88 314.97 80.81 295.01
  Q 86.69 265.26 103.89 240.90
  Q 109.65 232.75 116.68 225.54
  Q 142.33 199.25 178.00 189.25
  Q 200.57 182.92 225.25 183.54
  Z"
/>
<path fill="#87928c" d="
  M 225.25 183.54
  Q 227.19 183.24 229.00 183.96
  Q 227.04 184.31 225.25 183.54
  Z"
/>
<path fill="#87928c" d="
  M 232.75 184.29
  Q 238.05 184.11 243.25 185.21
  Q 241.85 185.69 240.49 185.41
  Q 238.00 184.90 237.95 184.90
  Q 235.34 184.68 232.75 184.29
  Z"
/>
<path fill="#081115" d="
  M 510.32 239.18
  Q 509.60 244.41 510.46 249.50
  L 510.44 464.54
  A 0.71 0.71 0.0 0 1 509.73 465.25
  L 465.81 465.25
  A 0.56 0.56 0.0 0 1 465.25 464.69
  L 465.25 227.31
  A 0.56 0.56 0.0 0 0 464.69 226.75
  L 384.00 226.75
  A 0.50 0.50 0.0 0 1 383.50 226.25
  L 383.56 187.81
  A 0.51 0.50 -0.0 0 1 384.07 187.31
  L 592.06 187.25
  A 0.69 0.69 -0.3 0 1 592.75 187.94
  L 592.75 226.23
  A 0.52 0.52 -90.0 0 1 592.23 226.75
  L 511.35 226.75
  A 0.87 0.84 -89.7 0 0 510.51 227.61
  L 510.32 239.18
  Z"
/>
<path fill="#ffffff" d="
  M 1610.11 297.46
  Q 1609.98 297.35 1609.98 297.15
  Q 1609.99 296.95 1609.96 296.85
  Q 1597.43 253.57 1551.50 253.50
  Q 1517.92 253.45 1501.75 279.25
  Q 1496.80 287.14 1493.97 297.57
  Q 1490.52 310.33 1490.51 323.75
  Q 1490.50 387.63 1490.50 451.50
  A 0.50 0.50 0.0 0 1 1490.00 452.00
  L 1463.81 452.00
  A 0.81 0.81 89.9 0 1 1463.00 451.19
  Q 1463.00 389.00 1463.20 328.00
  Q 1463.25 313.21 1460.25 299.75
  Q 1458.53 292.04 1455.01 284.75
  Q 1451.42 277.33 1446.25 271.63
  Q 1430.53 254.31 1405.25 253.50
  Q 1397.61 253.26 1390.71 254.10
  Q 1383.14 255.03 1376.65 257.50
  Q 1357.12 264.91 1347.81 283.81
  Q 1339.24 301.22 1339.24 322.50
  Q 1339.25 386.87 1339.25 451.56
  A 0.51 0.51 0.0 0 1 1338.74 452.07
  L 1312.29 452.00
  A 0.54 0.54 89.9 0 1 1311.75 451.46
  L 1311.75 234.41
  A 0.73 0.72 90.0 0 1 1312.47 233.68
  L 1338.49 233.74
  A 0.78 0.77 -89.6 0 1 1339.25 234.52
  L 1339.25 267.02
  Q 1339.25 268.20 1339.84 267.18
  Q 1355.19 240.45 1385.52 232.83
  Q 1410.45 226.57 1434.28 233.71
  Q 1444.20 236.68 1452.48 241.80
  Q 1474.47 255.41 1483.75 280.76
  Q 1484.24 282.09 1484.74 280.77
  Q 1501.26 237.17 1547.75 230.50
  Q 1554.85 229.48 1563.95 230.02
  Q 1572.37 230.52 1579.92 232.35
  Q 1622.80 242.76 1636.19 286.31
  Q 1640.84 301.43 1640.81 318.75
  Q 1640.70 385.03 1640.81 451.31
  A 0.52 0.51 89.4 0 1 1640.31 451.83
  L 1614.01 451.99
  A 0.51 0.50 89.4 0 1 1613.50 451.48
  Q 1613.50 391.25 1613.70 331.00
  Q 1613.74 318.97 1612.00 308.00
  Q 1611.52 305.00 1611.50 302.75
  Q 1611.49 302.27 1611.25 301.81
  Q 1610.30 300.00 1610.41 297.92
  A 0.70 0.30 33.8 0 0 1610.11 297.46
  Z"
/>
<path fill="#ffffff" d="
  M 1965.31 265.62
  Q 1965.32 266.34 1965.64 265.70
  Q 1970.92 255.52 1977.71 247.83
  Q 1984.86 239.72 1993.21 235.42
  Q 2005.21 229.25 2019.50 229.99
  Q 2026.80 230.38 2032.19 233.81
  Q 2034.30 235.16 2034.11 237.88
  Q 2034.00 239.52 2034.00 239.63
  Q 2033.96 261.16 2033.94 282.60
  A 0.18 0.17 14.4 0 1 2033.68 282.75
  Q 2019.77 275.05 2005.24 276.66
  Q 1979.06 279.57 1970.31 303.56
  Q 1965.19 317.61 1965.20 334.75
  Q 1965.25 392.87 1965.25 451.48
  A 0.52 0.52 0.0 0 1 1964.73 452.00
  L 1921.27 452.00
  A 0.71 0.70 0.0 0 1 1920.56 451.30
  L 1920.56 234.32
  A 0.52 0.51 89.4 0 1 1921.06 233.80
  Q 1942.87 233.05 1964.69 233.79
  A 0.52 0.52 1.1 0 1 1965.19 234.31
  L 1965.31 265.62
  Z"
/>
<path fill="#ffffff" d="
  M 2232.43 416.49
  Q 2212.71 448.43 2176.50 454.50
  Q 2151.65 458.67 2126.96 450.85
  Q 2117.25 447.77 2108.62 442.95
  Q 2077.48 425.55 2065.44 391.81
  Q 2054.41 360.93 2058.00 326.25
  Q 2060.79 299.25 2073.46 277.25
  Q 2078.57 268.38 2085.23 261.15
  Q 2108.68 235.69 2144.75 231.00
  Q 2161.44 228.83 2176.98 231.38
  Q 2213.25 237.33 2231.78 267.57
  Q 2233.00 269.56 2233.00 267.23
  L 2233.00 234.17
  A 0.67 0.67 0.1 0 1 2233.67 233.50
  L 2276.27 233.50
  A 1.30 1.29 -90.0 0 1 2277.56 234.80
  L 2277.44 451.43
  A 0.51 0.51 -0.0 0 1 2276.93 451.94
  L 2233.64 452.00
  A 0.83 0.82 -89.3 0 1 2232.82 451.15
  Q 2233.37 433.99 2232.71 416.56
  Q 2232.69 416.06 2232.43 416.49
  Z
  M 2218.06 292.69
  Q 2207.88 278.89 2192.25 272.50
  Q 2177.53 266.49 2159.24 268.67
  Q 2139.15 271.07 2125.34 284.24
  Q 2118.32 290.94 2113.39 300.15
  Q 2107.78 310.62 2105.50 323.00
  Q 2101.12 346.82 2107.04 369.16
  Q 2109.86 379.79 2114.39 387.70
  Q 2124.51 405.41 2143.48 412.98
  Q 2152.60 416.61 2162.90 417.33
  Q 2173.60 418.07 2183.69 415.69
  Q 2207.65 410.04 2220.92 388.70
  Q 2229.06 375.61 2231.75 359.75
  Q 2236.07 334.32 2227.64 310.54
  Q 2224.31 301.16 2218.06 292.69
  Z"
/>
<path fill="#ffffff" d="
  M 2374.06 345.81
  Q 2374.22 354.84 2376.14 365.43
  Q 2377.66 373.84 2380.92 381.63
  Q 2384.30 389.73 2389.35 396.09
  Q 2405.82 416.84 2434.50 416.39
  Q 2457.26 416.04 2472.55 399.56
  Q 2482.35 389.01 2485.05 374.88
  A 1.09 1.08 -84.5 0 1 2486.11 374.00
  L 2533.05 374.00
  A 0.45 0.45 -83.8 0 1 2533.49 374.55
  Q 2529.23 393.59 2518.88 410.15
  Q 2509.24 425.58 2494.97 436.33
  Q 2487.27 442.12 2477.73 446.36
  Q 2449.14 459.05 2417.85 454.94
  Q 2407.93 453.64 2398.39 450.50
  Q 2351.79 435.15 2334.75 387.75
  Q 2327.09 366.43 2327.48 342.99
  Q 2327.65 332.71 2329.00 323.06
  Q 2332.51 297.91 2345.81 277.06
  Q 2361.69 252.17 2388.00 240.00
  Q 2406.48 231.45 2427.01 230.19
  Q 2437.24 229.56 2446.99 230.36
  Q 2464.37 231.79 2480.26 238.84
  Q 2489.66 243.01 2497.51 248.83
  Q 2511.18 258.96 2519.69 273.06
  Q 2530.21 290.51 2533.40 311.25
  A 0.43 0.43 -4.5 0 1 2532.97 311.75
  L 2486.26 311.75
  A 1.26 1.26 -5.2 0 1 2485.02 310.72
  Q 2482.53 297.13 2473.63 286.34
  Q 2463.66 274.23 2448.32 270.66
  Q 2439.02 268.50 2429.51 269.35
  Q 2399.46 272.02 2384.83 298.02
  Q 2378.68 308.94 2376.32 321.26
  Q 2373.86 334.09 2374.06 345.81
  Z"
/>
<path fill="#ffffff" d="
  M 2810.24 423.01
  Q 2792.52 403.85 2785.52 378.63
  Q 2777.39 349.31 2782.54 319.26
  Q 2785.72 300.72 2794.47 284.40
  Q 2799.21 275.55 2805.61 267.85
  Q 2829.43 239.12 2867.51 232.03
  Q 2889.60 227.91 2911.71 231.98
  Q 2953.46 239.65 2975.61 273.69
  Q 2980.94 281.88 2984.67 291.48
  Q 2995.73 319.91 2991.65 350.89
  Q 2991.59 351.34 2991.64 353.09
  Q 2991.71 355.22 2989.49 354.65
  Q 2988.97 354.52 2988.51 354.57
  Q 2988.01 354.62 2987.50 354.62
  Q 2907.50 354.75 2827.26 354.75
  A 0.73 0.73 -2.8 0 0 2826.53 355.55
  Q 2827.93 369.69 2833.91 382.90
  Q 2840.30 397.02 2852.15 406.04
  Q 2859.91 411.95 2869.90 414.97
  Q 2887.02 420.15 2904.46 415.97
  Q 2915.00 413.45 2922.80 408.28
  Q 2938.62 397.80 2942.75 377.86
  A 0.77 0.75 -83.8 0 1 2943.49 377.25
  L 2989.44 377.31
  A 0.40 0.39 6.4 0 1 2989.83 377.79
  Q 2981.04 417.05 2948.96 438.72
  Q 2940.68 444.31 2931.29 447.97
  Q 2909.87 456.32 2885.75 455.75
  Q 2867.12 455.31 2850.90 449.65
  Q 2827.23 441.39 2810.24 423.01
  Z
  M 2830.94 324.55
  Q 2888.56 324.69 2946.18 324.44
  A 0.50 0.49 -0.6 0 0 2946.68 323.94
  Q 2946.29 309.27 2939.56 297.19
  Q 2926.15 273.11 2898.25 268.74
  Q 2876.61 265.36 2858.66 275.31
  Q 2849.83 280.21 2843.30 287.92
  Q 2835.15 297.54 2831.16 309.93
  Q 2829.01 316.60 2827.65 324.05
  A 0.38 0.38 -84.1 0 0 2828.01 324.50
  Q 2829.48 324.55 2830.94 324.55
  Z"
/>
<path fill="#ffffff" d="
  M 3041.29 451.50
  Q 3042.04 404.00 3041.90 356.50
  Q 3041.75 303.25 3041.80 250.00
  Q 3041.80 248.25 3041.29 249.75
  L 3041.47 234.25
  A 0.55 0.52 -0.0 0 1 3042.01 233.74
  Q 3063.35 233.18 3085.22 233.70
  A 0.82 0.81 -89.3 0 1 3086.01 234.52
  L 3086.24 265.15
  Q 3086.25 266.23 3086.72 265.25
  Q 3090.00 258.49 3094.24 252.54
  Q 3108.88 232.00 3134.23 229.81
  Q 3144.98 228.89 3153.75 234.44
  A 1.63 1.61 16.5 0 1 3154.50 235.80
  L 3154.50 282.68
  Q 3154.50 283.20 3154.07 282.91
  Q 3147.71 278.56 3140.25 277.27
  Q 3132.11 275.86 3124.12 276.93
  Q 3115.81 278.03 3109.01 281.79
  Q 3096.97 288.44 3091.81 301.56
  Q 3087.06 313.65 3086.16 327.50
  Q 3086.00 329.92 3086.00 347.50
  Q 3086.00 399.60 3086.00 451.41
  A 0.59 0.59 0.1 0 1 3085.41 452.00
  Q 3063.75 452.00 3042.75 452.00
  Q 3041.56 452.00 3041.29 451.50
  Z"
/>
<path fill="#ffffff" d="
  M 1087.48 286.60
  L 1064.26 234.27
  A 0.33 0.33 77.8 0 1 1064.56 233.80
  L 1093.17 233.75
  A 0.53 0.52 77.8 0 1 1093.65 234.07
  L 1170.15 408.38
  Q 1170.64 409.50 1171.10 408.37
  L 1242.56 234.22
  A 0.78 0.74 -79.2 0 1 1243.24 233.73
  L 1269.64 233.52
  A 0.70 0.69 -79.0 0 1 1270.28 234.49
  L 1145.15 540.14
  A 1.38 1.38 11.1 0 1 1143.87 541.00
  L 1117.77 541.00
  A 0.60 0.60 11.1 0 1 1117.21 540.17
  L 1156.19 444.79
  A 1.66 1.63 44.6 0 0 1156.17 443.51
  Q 1122.09 365.51 1088.00 288.50
  Q 1087.77 287.99 1087.71 287.56
  Q 1087.60 286.87 1087.48 286.60
  Z"
/>
<path fill="#ffffff" d="
  M 2681.05 338.40
  L 2767.34 451.59
  Q 2767.65 452.00 2767.14 452.00
  L 2714.30 452.00
  A 1.63 1.62 71.1 0 1 2713.01 451.36
  L 2629.71 341.28
  A 0.95 0.95 45.6 0 1 2629.72 340.11
  L 2712.63 234.22
  A 1.73 1.71 -70.6 0 1 2713.98 233.56
  L 2763.80 233.50
  Q 2765.40 233.50 2764.39 234.75
  L 2681.06 337.62
  A 0.64 0.63 46.3 0 0 2681.05 338.40
  Z"
/>
<path fill="#87928c" d="
  M 510.32 239.18
  L 510.46 249.50
  Q 509.60 244.41 510.32 239.18
  Z"
/>
<path fill="#fdfeff" fill-opacity="0.980" d="
  M 3041.29 451.50
  L 3041.29 249.75
  Q 3041.80 248.25 3041.80 250.00
  Q 3041.75 303.25 3041.90 356.50
  Q 3042.04 404.00 3041.29 451.50
  Z"
/>
</svg>
