<svg xmlns="http://www.w3.org/2000/svg" width="153.958" height="206.424" viewBox="0 0 153.958 206.424">
  <path id="Path_5832" data-name="Path 5832" d="M62.323,7.726q0-14.908,6.737-24.656T88.7-38.432a114.416,114.416,0,0,0,13.9-14.478,21.533,21.533,0,0,0,4.444-13.332A19.661,19.661,0,0,0,98.59-83.014q-8.458-6.164-22.506-6.164a50.016,50.016,0,0,0-23.939,5.591A51.027,51.027,0,0,0,34.513-67.963L-.178-88.318A80.306,80.306,0,0,1,32.362-116.7q20.5-10.035,48.6-10.035,32.971,0,52.9,14.048T153.78-73.7a51.321,51.321,0,0,1-3.87,20.642A54.666,54.666,0,0,1,140.448-38q-5.591,6.164-14.478,14.192Q115.362-14.35,110.488-7.9a25.17,25.17,0,0,0-4.874,15.625ZM84.112,79.688q-11.755,0-19.639-7.6A24.713,24.713,0,0,1,56.589,53.6,24.016,24.016,0,0,1,64.33,35.393q7.741-7.311,19.782-7.311t19.782,7.311A24.016,24.016,0,0,1,111.635,53.6a24.713,24.713,0,0,1-7.884,18.492Q95.867,79.688,84.112,79.688Z" transform="translate(0.178 126.736)" fill="#fff" opacity="0.181"/>
</svg>
