<svg id="facebook-logo" xmlns="http://www.w3.org/2000/svg" width="14.267" height="26.389" viewBox="0 0 14.267 26.389">
  <path id="Path_717" data-name="Path 717" d="M35.807.005,32.385,0c-3.845,0-6.329,2.549-6.329,6.494V9.489H22.615a.538.538,0,0,0-.538.538v4.338a.538.538,0,0,0,.538.538h3.441V25.851a.538.538,0,0,0,.538.538h4.489a.538.538,0,0,0,.538-.538V14.9h4.023a.538.538,0,0,0,.538-.538l0-4.338a.538.538,0,0,0-.538-.538H31.621V6.95c0-1.22.291-1.839,1.88-1.839h2.305a.538.538,0,0,0,.538-.538V.544A.538.538,0,0,0,35.807.005Z" transform="translate(-22.077)" fill="#fff"/>
</svg>
