<svg xmlns="http://www.w3.org/2000/svg" width="36.988" height="36.989" viewBox="0 0 36.988 36.989">
  <path id="Subtraction_12" data-name="Subtraction 12" d="M18.494,36.988A18.5,18.5,0,0,1,11.3,1.453a18.5,18.5,0,0,1,14.4,34.082A18.379,18.379,0,0,1,18.494,36.988Zm-3.4-27.371a5.424,5.424,0,0,0-5.418,5.418v6.5a5.424,5.424,0,0,0,5.418,5.418h6.5a5.424,5.424,0,0,0,5.418-5.418v-6.5a5.424,5.424,0,0,0-5.418-5.418Zm6.5,15.713h-6.5A3.8,3.8,0,0,1,11.3,21.538v-6.5a3.8,3.8,0,0,1,3.793-3.793h6.5a3.8,3.8,0,0,1,3.792,3.793v6.5A3.8,3.8,0,0,1,21.594,25.33ZM18.342,13.952a4.335,4.335,0,1,0,4.335,4.334A4.339,4.339,0,0,0,18.342,13.952Zm4.661-.9a.578.578,0,1,0,.577.578A.579.579,0,0,0,23,13.049Zm-4.661,7.945a2.709,2.709,0,1,1,2.709-2.709A2.712,2.712,0,0,1,18.342,20.995Z" fill="#080b14"/>
</svg>
