<svg xmlns="http://www.w3.org/2000/svg" width="36.988" height="36.989" viewBox="0 0 36.988 36.989">
  <path id="Subtraction_10" data-name="Subtraction 10" d="M18.494,36.988A18.5,18.5,0,0,1,11.3,1.453a18.5,18.5,0,0,1,14.4,34.082A18.379,18.379,0,0,1,18.494,36.988ZM9.856,14.356V25.7h3.77V14.356Zm5.861,0c.05,1.047,0,11.245,0,11.348h3.77V19.366a2.57,2.57,0,0,1,.125-.919,2.067,2.067,0,0,1,1.938-1.383c1.579,0,1.911,1.4,1.911,2.565V25.7h3.771V19.2a5.511,5.511,0,0,0-1.239-3.86,4.084,4.084,0,0,0-3.1-1.247c-.052,0-.1,0-.154,0a3.757,3.757,0,0,0-3.247,1.878V16h-.026a.177.177,0,0,1,.012-.018l.013-.019V14.356Zm-4-1.551h.025c.059.006.12.009.183.009a1.967,1.967,0,0,0,1.68-2.988,1.977,1.977,0,0,0-1.679-.945c-.053,0-.106,0-.159.006s-.124-.009-.186-.009a1.966,1.966,0,0,0-1.686,2.974,1.974,1.974,0,0,0,1.687.958C11.626,12.809,11.672,12.808,11.718,12.8Z" fill="#fff"/>
</svg>
