<svg id="Group_3349" data-name="Group 3349" xmlns="http://www.w3.org/2000/svg" width="22.226" height="21.239" viewBox="0 0 22.226 21.239">
  <path id="Path_885" data-name="Path 885" d="M49.294,36.99v8.219H44.53V37.541c0-1.925-.688-3.24-2.413-3.24a2.606,2.606,0,0,0-2.444,1.742,3.261,3.261,0,0,0-.158,1.161v8H34.749s.064-12.987,0-14.331h4.766v2.031c-.01.016-.023.032-.032.047h.032v-.047a4.731,4.731,0,0,1,4.294-2.367c3.135,0,5.485,2.048,5.485,6.449ZM29.764,23.969a2.483,2.483,0,1,0-.063,4.953h.031a2.484,2.484,0,1,0,.032-4.953ZM27.351,45.208h4.763V30.877H27.351Z" transform="translate(-27.068 -23.969)" fill="#f1f2f2"/>
</svg>
