<svg id="black-envelope" xmlns="http://www.w3.org/2000/svg" width="24.432" height="17.103" viewBox="0 0 24.432 17.103">
  <g id="Group_3350" data-name="Group 3350" transform="translate(0 0)">
    <path id="Path_886" data-name="Path 886" d="M2.141,5.189l8.8,6.971a2.239,2.239,0,0,0,1.483.43,2.233,2.233,0,0,0,1.482-.43l8.8-6.971c.705-.555.546-1.01-.349-1.01H2.493C1.6,4.179,1.438,4.634,2.141,5.189Z" transform="translate(-0.209 -4.179)" fill="#202020"/>
    <path id="Path_887" data-name="Path 887" d="M23.134,7.39l-9.617,7.3a2.335,2.335,0,0,1-2.6,0L1.3,7.39C.584,6.849,0,7.139,0,8.034v11.98a1.634,1.634,0,0,0,1.629,1.629H22.8a1.634,1.634,0,0,0,1.629-1.629V8.034C24.432,7.139,23.848,6.849,23.134,7.39Z" transform="translate(0 -4.54)" fill="#202020"/>
  </g>
</svg>
