<svg id="instagram" xmlns="http://www.w3.org/2000/svg" width="24" height="24" viewBox="0 0 24 24">
  <path id="Path_5822" data-name="Path 5822" d="M18.747,24H5.253A5.259,5.259,0,0,1,0,18.747V5.253A5.259,5.259,0,0,1,5.253,0H18.747A5.259,5.259,0,0,1,24,5.253V18.747A5.259,5.259,0,0,1,18.747,24ZM5.253,1.406A3.851,3.851,0,0,0,1.406,5.253V18.747a3.851,3.851,0,0,0,3.846,3.846H18.747a3.851,3.851,0,0,0,3.846-3.846V5.253a3.851,3.851,0,0,0-3.846-3.846Zm0,0" fill="#fff"/>
  <path id="Path_5823" data-name="Path 5823" d="M108.854,116.091a7.237,7.237,0,1,1,7.237-7.237A7.245,7.245,0,0,1,108.854,116.091Zm0-13.067a5.83,5.83,0,1,0,5.83,5.83A5.837,5.837,0,0,0,108.854,103.023Zm0,0" transform="translate(-96.854 -96.854)" fill="#fff"/>
  <path id="Path_5824" data-name="Path 5824" d="M395.006,79.907a.932.932,0,1,1,.809-.466A.926.926,0,0,1,395.006,79.907Zm0,0" transform="translate(-375.603 -74.384)" fill="#fff"/>
</svg>
