<svg xmlns="http://www.w3.org/2000/svg" width="20.624" height="25.794" viewBox="0 0 20.624 25.794">
  <path id="Path_882" data-name="Path 882" d="M83.811,63.781c-7.271,0-10.935,5.048-10.935,9.256,0,2.548,1,4.816,3.134,5.66a.53.53,0,0,0,.766-.37l.312-1.19a.7.7,0,0,0-.219-.825,4.179,4.179,0,0,1-1.01-2.906,7.137,7.137,0,0,1,7.533-7.1c4.11,0,6.367,2.431,6.367,5.677,0,4.272-1.953,7.878-4.852,7.878a2.315,2.315,0,0,1-2.414-2.855c.459-1.875,1.352-3.9,1.352-5.257a2.01,2.01,0,0,0-2.065-2.225c-1.637,0-2.951,1.639-2.951,3.835a5.541,5.541,0,0,0,.489,2.345l-1.969,8.075a16.13,16.13,0,0,0-.045,5.63.206.206,0,0,0,.364.085,15.706,15.706,0,0,0,2.762-4.851c.188-.659,1.077-4.073,1.077-4.073a4.423,4.423,0,0,0,3.738,1.848c4.917,0,8.255-4.342,8.255-10.154C93.5,67.874,89.655,63.781,83.811,63.781Z" transform="translate(-72.876 -63.781)" fill="#fff"/>
</svg>
