<svg xmlns="http://www.w3.org/2000/svg" width="17.895" height="17.894" viewBox="0 0 17.895 17.894">
  <g id="magnifying-glass" transform="translate(0 -0.003)">
    <path id="Path_3" data-name="Path 3" d="M17.5,15.553l-3.689-3.688a7.365,7.365,0,0,0,1.334-4.291,7.437,7.437,0,0,0-.6-2.941A7.414,7.414,0,0,0,10.512.6,7.545,7.545,0,0,0,4.63.6,7.414,7.414,0,0,0,.6,4.633a7.545,7.545,0,0,0,0,5.882A7.416,7.416,0,0,0,4.63,14.548a7.44,7.44,0,0,0,2.941.6,7.365,7.365,0,0,0,4.291-1.334l3.689,3.678a1.277,1.277,0,0,0,.968.409,1.376,1.376,0,0,0,.979-2.344Zm-6.522-4.576a4.639,4.639,0,0,1-3.4,1.414,4.64,4.64,0,0,1-3.4-1.414,4.639,4.639,0,0,1-1.414-3.4,4.64,4.64,0,0,1,1.414-3.4,4.639,4.639,0,0,1,3.4-1.414,4.641,4.641,0,0,1,3.4,1.414,4.639,4.639,0,0,1,1.414,3.4A4.64,4.64,0,0,1,10.975,10.977Z" transform="translate(0 0)" fill="#222"/>
  </g>
</svg>
