<svg id="bookmark-star" xmlns="http://www.w3.org/2000/svg" width="24.154" height="23.063" viewBox="0 0 24.154 23.063">
  <path id="Path_953" data-name="Path 953" d="M11.24,1.57a.935.935,0,0,1,1.677,0l3.007,6.094a.935.935,0,0,0,.7.511l6.725.977a.935.935,0,0,1,.518,1.595l-4.866,4.744a.936.936,0,0,0-.269.828l1.148,6.7A.936.936,0,0,1,18.528,24l-6.016-3.163a.934.934,0,0,0-.87,0L5.626,24a.935.935,0,0,1-1.357-.986l1.148-6.7a.935.935,0,0,0-.269-.828L.283,10.748A.935.935,0,0,1,.8,9.153l6.726-.977a.935.935,0,0,0,.7-.512Z" transform="translate(0 -1.049)" fill="#1F19FF"/>
</svg>
