<svg xmlns="http://www.w3.org/2000/svg" width="184.278" height="206" viewBox="0 0 184.278 206">
  <g id="chronometer" transform="translate(-26.994)" opacity="0.995">
    <path id="Path_5817" data-name="Path 5817" d="M188.412,53.118l6.966-6.966,6.911,6.911,8.535-8.536L188.466,22.171l-8.535,8.536,6.911,6.911-6.966,6.966a91.332,91.332,0,0,0-54.708-22.661V12.071h21.325V0H91.773V12.071H113.1v9.851A92.138,92.138,0,0,0,53.981,179.013a92.138,92.138,0,0,0,134.431-125.9ZM119.133,193.93A80.069,80.069,0,1,1,199.2,113.861,80.159,80.159,0,0,1,119.133,193.93Z" transform="translate(0 0)" fill="#fff"/>
    <path id="Path_5818" data-name="Path 5818" d="M154.231,112.715a68.51,68.51,0,1,0,68.51,68.51,68.587,68.587,0,0,0-68.51-68.51Zm6.035,124.625V224.866H148.2V237.34a56.542,56.542,0,0,1-50.08-50.081H110.59V175.189H98.116a56.543,56.543,0,0,1,50.08-50.081v12.475h12.071V125.108a56.543,56.543,0,0,1,50.081,50.081H197.873V187.26h12.475A56.542,56.542,0,0,1,160.267,237.34Z" transform="translate(-35.098 -67.364)" fill="#fff"/>
    <path id="Path_5819" data-name="Path 5819" d="M216.246,232.791a10.467,10.467,0,0,0-1.762.152L198.022,216.48l-8.535,8.535,16.462,16.462a10.447,10.447,0,1,0,10.3-8.687Z" transform="translate(-97.113 -129.378)" fill="#fff"/>
  </g>
</svg>
