<svg xmlns="http://www.w3.org/2000/svg" width="36.988" height="36.989" viewBox="0 0 36.988 36.989">
  <path id="Subtraction_11" data-name="Subtraction 11" d="M18.494,36.988A18.5,18.5,0,0,1,11.3,1.453a18.5,18.5,0,0,1,14.4,34.082A18.379,18.379,0,0,1,18.494,36.988ZM9.682,24.227h0A10.151,10.151,0,0,0,15.2,25.839a10.359,10.359,0,0,0,4.388-.93,9.679,9.679,0,0,0,3.206-2.4,10.577,10.577,0,0,0,2.635-6.894c0-.165-.006-.321-.013-.465a7.184,7.184,0,0,0,1.8-1.866,7.512,7.512,0,0,1-2.071.567,3.576,3.576,0,0,0,1.581-1.986,7.19,7.19,0,0,1-2.279.869,3.594,3.594,0,0,0-6.216,2.457,3.676,3.676,0,0,0,.083.82,10.068,10.068,0,0,1-4.158-1.116A10.213,10.213,0,0,1,10.9,12.252a3.594,3.594,0,0,0,1.1,4.8,3.521,3.521,0,0,1-1.624-.443v.04a3.615,3.615,0,0,0,2.88,3.531,3.585,3.585,0,0,1-.942.119,3.148,3.148,0,0,1-.68-.061A3.626,3.626,0,0,0,15,22.743a7.259,7.259,0,0,1-4.455,1.533A6.709,6.709,0,0,1,9.682,24.227Z" fill="#080b14"/>
</svg>
