<svg id="twitter-logo-silhouette" xmlns="http://www.w3.org/2000/svg" width="26.472" height="21.503" viewBox="0 0 26.472 21.503">
  <g id="Group_2873" data-name="Group 2873">
    <path id="Path_825" data-name="Path 825" d="M26.473,59.985a10.844,10.844,0,0,1-3.118.855,5.453,5.453,0,0,0,2.387-3,10.948,10.948,0,0,1-3.451,1.318,5.435,5.435,0,0,0-9.253,4.951A15.417,15.417,0,0,1,1.845,58.433a5.437,5.437,0,0,0,1.681,7.249A5.431,5.431,0,0,1,1.066,65v.068a5.436,5.436,0,0,0,4.355,5.325,5.5,5.5,0,0,1-1.431.19,5.213,5.213,0,0,1-1.022-.1A5.433,5.433,0,0,0,8.04,74.254,10.9,10.9,0,0,1,1.3,76.575,11.543,11.543,0,0,1,0,76.5a15.35,15.35,0,0,0,8.324,2.443,15.344,15.344,0,0,0,15.45-15.45l-.018-.7A10.844,10.844,0,0,0,26.473,59.985Z" transform="translate(-0.001 -57.441)" fill="#fff"/>
  </g>
</svg>
